<svg width="43" height="46" viewBox="0 0 43 46" fill="none" xmlns="http://www.w3.org/2000/svg">
<path d="M16.0909 16.2898L11.9269 17.4844C11.1621 17.7038 10.3415 17.6104 9.64556 17.2247L4.70302 14.4859C3.2538 13.6828 2.72999 11.857 3.53306 10.4078L4.00321 9.55932C4.76823 8.17875 6.50245 7.67192 7.89053 8.42324L8.02766 8.49746C10.2195 9.68382 12.7572 7.64408 12.0699 5.24843C11.6416 3.75534 12.5047 2.19771 13.9978 1.76937L14.9392 1.4993C16.5318 1.0424 18.1932 1.96308 18.6501 3.55569L20.2076 8.98462C20.4312 9.76391 20.3298 10.6005 19.9266 11.3039L17.8663 14.898C17.4781 15.5753 16.8413 16.0745 16.0909 16.2898Z" fill="#F40051"/>
<path d="M20.2441 27.0642L16.3358 28.9327C15.618 29.2759 15.0659 29.8902 14.801 30.6404L12.9196 35.9687C12.3679 37.531 13.1872 39.2447 14.7495 39.7964L15.6642 40.1193C17.1525 40.6449 18.7864 39.8736 19.3266 38.3906L19.38 38.2441C20.233 35.9023 23.4851 35.7451 24.5601 37.9936C25.23 39.395 26.9092 39.988 28.3106 39.318L29.1942 38.8956C30.689 38.1809 31.3214 36.3898 30.6068 34.895L28.1707 29.7995C27.821 29.068 27.1902 28.5093 26.4219 28.2504L22.4959 26.9278C21.7561 26.6786 20.9484 26.7275 20.2441 27.0642Z" fill="#F7D337"/>
<path d="M25.5264 15.7305L29.7971 16.4564C30.5815 16.5897 31.3867 16.406 32.0357 15.9456L36.6443 12.676C37.9957 11.7174 38.314 9.84472 37.3553 8.49339L36.794 7.70227C35.8807 6.41495 34.1011 6.10338 32.8048 7.00387L32.6767 7.09283C30.6298 8.51472 27.8817 6.76869 28.2994 4.31165C28.5596 2.7803 27.5292 1.32789 25.9979 1.0676L25.0324 0.903493C23.399 0.625856 21.8497 1.72494 21.5721 3.35837L20.6257 8.92644C20.4898 9.72571 20.6833 10.5459 21.1619 11.2003L23.6077 14.5441C24.0686 15.1741 24.7568 15.5997 25.5264 15.7305Z" fill="#6BBCFF"/>
<path d="M26.8279 23.1717L27.3621 27.4706C27.4603 28.2602 27.868 28.9784 28.4957 29.4674L32.9536 32.9397C34.2607 33.9579 36.1457 33.7236 37.1639 32.4165L37.7599 31.6513C38.7298 30.4061 38.5159 28.612 37.2804 27.6298L37.1583 27.5328C35.2074 25.9819 36.0884 22.8475 38.5617 22.5401C40.1031 22.3486 41.1974 20.9437 41.0059 19.4022L40.8851 18.4304C40.6807 16.7862 39.1822 15.6189 37.538 15.8232L31.9332 16.5198C31.1286 16.6198 30.3988 17.0411 29.91 17.6878L27.4118 20.9927C26.9411 21.6154 26.7316 22.3971 26.8279 23.1717Z" fill="#4AFCBE"/>
<path d="M15.4654 23.9353L15.3074 28.2644C15.2784 29.0595 14.9348 29.8105 14.352 30.3523L10.2134 34.1996C8.99988 35.3276 7.10164 35.2584 5.97356 34.0449L5.31313 33.3344C4.23849 32.1784 4.29542 30.3726 5.44075 29.2865L5.55389 29.1792C7.36239 27.4644 6.21183 24.4186 3.72119 24.3277C2.16891 24.2711 0.956447 22.9668 1.01308 21.4145L1.04878 20.4358C1.10918 18.7801 2.5004 17.4868 4.15615 17.5472L9.80034 17.7531C10.6105 17.7827 11.3743 18.1389 11.9176 18.7406L14.694 21.8154C15.2171 22.3948 15.4938 23.1552 15.4654 23.9353Z" fill="#B4E1FF"/>
</svg>
