<svg width="132" height="131" viewBox="0 0 132 131" fill="none" xmlns="http://www.w3.org/2000/svg">
<path d="M51.6684 96.408C52.8896 96.9089 53.8583 97.5513 54.5745 98.335C55.2733 99.126 55.7684 99.9919 56.0598 100.933C56.3512 101.874 56.4743 102.803 56.4291 103.722C56.3666 104.647 56.1835 105.48 55.8799 106.22L55.713 106.627C55.379 107.441 54.9032 108.197 54.2856 108.895C53.6556 109.588 52.9141 110.149 52.0611 110.577C51.1906 111.012 50.234 111.254 49.1912 111.302C48.136 111.345 47.0163 111.123 45.8321 110.638C44.6478 110.152 43.7012 109.526 42.9923 108.76C42.2834 107.993 41.7721 107.149 41.4582 106.228C41.1393 105.319 41.005 104.399 41.0552 103.469C41.093 102.533 41.279 101.658 41.6129 100.844L41.7799 100.437C42.0834 99.6968 42.5441 98.9778 43.1617 98.28C43.7743 97.5945 44.5147 97.0191 45.3829 96.5538C46.2388 96.0834 47.1993 95.8144 48.2646 95.747C49.3248 95.6918 50.4594 95.9122 51.6684 96.408ZM50.8259 98.462C50.0858 98.1584 49.364 98.0209 48.6605 98.0494C47.9571 98.0779 47.2995 98.2406 46.6878 98.5373C46.0761 98.8341 45.5415 99.2417 45.0838 99.7601C44.6139 100.274 44.2397 100.869 43.9615 101.548C43.668 102.263 43.5083 102.969 43.4825 103.664C43.4515 104.372 43.5522 105.041 43.7844 105.669C43.9992 106.305 44.3496 106.874 44.8354 107.375C45.3213 107.877 45.9343 108.28 46.6745 108.584C47.4147 108.887 48.1339 109.031 48.8323 109.015C49.5307 108.999 50.1857 108.842 50.7974 108.545C51.4041 108.261 51.9449 107.856 52.4199 107.33C52.8775 106.812 53.2531 106.195 53.5466 105.479C53.8248 104.801 53.9831 104.116 54.0213 103.426C54.0472 102.73 53.9465 102.062 53.7194 101.421C53.4922 100.781 53.1382 100.203 52.6574 99.6887C52.1766 99.1745 51.5661 98.7656 50.8259 98.462Z" fill="#F40051"/>
<path d="M42.7972 91.5258L31.786 101.265L30.196 99.4669L41.2072 89.7281L42.7972 91.5258ZM36.8611 84.8143L35.1262 92.5432L33.3242 90.5057L34.9664 82.6719L36.8611 84.8143ZM37.9187 93.6779L36.4056 95.0161L33.8881 92.1697C33.5082 91.7402 33.0965 91.4458 32.6529 91.2863C32.1993 91.1357 31.747 91.1174 31.2961 91.2315C30.8363 91.3355 30.4016 91.5686 29.9922 91.9308C29.5927 92.2841 29.3132 92.6826 29.1538 93.1262C28.9855 93.5599 28.9484 94.011 29.0424 94.4796C29.1365 94.9482 29.3734 95.3973 29.7533 95.8267L32.2708 98.6731L30.7127 100.051L28.4072 97.4444C27.6652 96.6055 27.1502 95.7616 26.8622 94.9127C26.5642 94.0726 26.5198 93.2575 26.7288 92.4675C26.9378 91.6774 27.4418 90.929 28.2408 90.2224L28.4805 90.0104C29.2795 89.3037 30.0883 88.8999 30.9068 88.7989C31.7165 88.688 32.52 88.8317 33.3174 89.2301C34.1059 89.6185 34.8712 90.2322 35.6132 91.0711L37.9187 93.6779Z" fill="#F40051"/>
<path d="M34.1743 79.4385L20.6869 85.0287L19.768 82.8116L33.2554 77.2214L34.1743 79.4385Z" fill="#F40051"/>
<path d="M31.6 67.1979C31.6872 68.4482 31.5618 69.5262 31.224 70.4319C30.8719 71.3252 30.3591 72.0225 29.6857 72.5239C28.999 73.0262 28.2033 73.3088 27.2989 73.3719L27.1348 71.0176C27.5471 70.9888 27.9449 70.8475 28.3282 70.5936C28.7115 70.3397 29.0185 69.9507 29.2493 69.4267C29.4668 68.9037 29.5454 68.2099 29.4852 67.3453C29.4305 66.5605 29.2724 65.9233 29.0111 65.4336C28.7488 64.9306 28.4231 64.5724 28.034 64.359C27.644 64.1322 27.2228 64.0346 26.7706 64.0661C26.212 64.105 25.7764 64.376 25.464 64.8789C25.1382 65.3828 24.9688 66.1163 24.9557 67.0796L24.9176 68.5458C24.9048 69.8966 24.5671 70.9961 23.9044 71.8442C23.2285 72.6932 22.2986 73.159 21.1148 73.2415C20.2104 73.3045 19.4108 73.1464 18.7161 72.7671C18.0204 72.3746 17.459 71.7989 17.0319 71.0401C16.5915 70.2822 16.3351 69.3845 16.2628 68.347C16.1886 67.2829 16.3171 66.3451 16.6481 65.5334C16.9659 64.7227 17.4557 64.0804 18.1177 63.6066C18.7655 63.1204 19.5615 62.8443 20.5059 62.7785L20.67 65.1328C20.2444 65.1625 19.8528 65.2967 19.4952 65.5355C19.1233 65.7619 18.8325 66.0962 18.6228 66.5386C18.413 66.9809 18.3313 67.5346 18.3777 68.1996C18.4222 68.8381 18.5723 69.3622 18.8281 69.7721C19.083 70.1687 19.3974 70.4609 19.7713 70.6486C20.1453 70.8364 20.5384 70.916 20.9508 70.8872C21.4429 70.8529 21.8689 70.6361 22.2286 70.2368C22.5751 69.8384 22.7547 69.2512 22.7675 68.4751L22.787 67.0302C22.7955 66.0005 22.9533 65.1007 23.2605 64.3308C23.5535 63.5485 23.9782 62.9308 24.5348 62.4777C25.0903 62.0113 25.7805 61.7493 26.6051 61.6918C27.5096 61.6288 28.3248 61.8193 29.0508 62.2632C29.7758 62.6938 30.3618 63.3346 30.8087 64.1856C31.2547 65.0233 31.5185 66.0274 31.6 67.1979Z" fill="#F40051"/>
<path d="M36.5107 47.8177C35.8774 48.8992 35.1657 49.7186 34.3759 50.2758C33.5812 50.8148 32.7645 51.1013 31.9256 51.1354C31.0752 51.1627 30.2588 50.9473 29.4764 50.4891L30.669 48.4526C31.0257 48.6615 31.4339 48.7692 31.8936 48.7758C32.3533 48.7823 32.8263 48.6344 33.3124 48.3319C33.7871 48.0227 34.2434 47.4942 34.6813 46.7463C35.0789 46.0675 35.3079 45.4522 35.3683 44.9005C35.4355 44.3372 35.3687 43.8577 35.1678 43.4619C34.9737 43.0547 34.681 42.7365 34.2898 42.5074C33.8066 42.2244 33.2941 42.2024 32.7524 42.4414C32.1992 42.6737 31.6455 43.1838 31.0913 43.9718L30.2327 45.1609C29.4601 46.269 28.5611 46.9864 27.5355 47.3128C26.4984 47.6326 25.4679 47.4926 24.4439 46.8929C23.6615 46.4347 23.0905 45.8531 22.7308 45.148C22.3779 44.4314 22.2391 43.6394 22.3145 42.7719C22.3784 41.8977 22.6731 41.0119 23.1987 40.1144C23.7377 39.194 24.3728 38.4921 25.104 38.0086C25.8237 37.5185 26.5905 37.2645 27.4044 37.2467C28.2136 37.2106 29.0266 37.4318 29.8435 37.9102L28.6509 39.9467C28.2827 39.7311 27.8836 39.621 27.4536 39.6164C27.0189 39.5936 26.5902 39.7056 26.1675 39.9525C25.7448 40.1994 25.3649 40.6105 25.0281 41.1858C24.7046 41.738 24.5329 42.2555 24.5129 42.7383C24.4996 43.2095 24.5944 43.6281 24.7972 43.9941C25.0001 44.3601 25.2798 44.6476 25.6365 44.8564C26.0622 45.1057 26.5362 45.167 27.0585 45.0403C27.5693 44.9068 28.0489 44.5232 28.4973 43.8896L29.3285 42.7076C29.9164 41.8621 30.5543 41.2082 31.2423 40.7458C31.9255 40.2652 32.6246 39.9948 33.3398 39.9346C34.0616 39.8629 34.7792 40.0359 35.4926 40.4536C36.2749 40.9118 36.8406 41.529 37.1896 42.305C37.5453 43.0696 37.6677 43.9293 37.5566 44.8841C37.4523 45.8273 37.1037 46.8052 36.5107 47.8177Z" fill="#F40051"/>
<path d="M40.4936 41.1692L36.2498 26.2908L39.5002 23.9941L52.2376 32.8708L50.2122 34.302L38.9371 26.3511L40.003 26.1612L38.0266 27.5577L38.6105 26.5819L42.4537 39.7842L40.4936 41.1692ZM40.8275 35.8885L40.2478 33.7512L45.246 30.2195L47.0833 31.4681L40.8275 35.8885Z" fill="#F40051"/>
<path d="M54.9305 32.7409L51.7326 18.4955L54.0743 17.9698L57.2722 32.2153L54.9305 32.7409ZM56.8819 32.3029L56.4132 30.2148L62.7553 28.7911L63.2241 30.8792L56.8819 32.3029Z" fill="#F40051"/>
<path d="M66.6583 31.0964L68.6098 16.6274L70.9685 16.9455L69.0169 31.4145L66.6583 31.0964ZM68.6205 31.361L68.8985 29.2997L75.6772 30.214L75.3991 32.2753L68.6205 31.361ZM69.4733 25.0383L69.7513 22.977L75.975 23.8164L75.697 25.8777L69.4733 25.0383ZM70.294 18.9534L70.5721 16.8921L77.1723 17.7823L76.8943 19.8436L70.294 18.9534Z" fill="#F40051"/>
<path d="M82.7837 36.3863C81.6963 35.763 80.8704 35.059 80.3058 34.2744C79.7595 33.4848 79.4654 32.6707 79.4236 31.8322C79.3883 30.9821 79.5962 30.1637 80.0471 29.3771L82.0945 30.5508C81.889 30.9094 81.785 31.3185 81.7828 31.7783C81.7805 32.2381 81.9328 32.7096 82.2398 33.1929C82.5534 33.6647 83.0861 34.1161 83.838 34.5471C84.5205 34.9383 85.1379 35.1616 85.6902 35.2169C86.254 35.2789 86.7329 35.2076 87.1268 35.003C87.5322 34.8051 87.8477 34.5095 88.0731 34.1162C88.3516 33.6304 88.3689 33.1177 88.1248 32.5783C87.8874 32.0272 87.3722 31.4783 86.5791 30.9315L85.3821 30.0839C84.2668 29.3217 83.5412 28.4293 83.2052 27.4068C82.8758 26.3727 83.0062 25.3409 83.5964 24.3114C84.0473 23.5248 84.6236 22.9484 85.3253 22.5822C86.0386 22.2227 86.8293 22.0765 87.6974 22.1439C88.5722 22.1996 89.4607 22.4861 90.363 23.0033C91.2884 23.5338 91.9962 24.1624 92.4864 24.8891C92.9832 25.6042 93.2443 26.3686 93.2697 27.1823C93.3132 27.9911 93.0996 28.8061 92.6288 29.6274L90.5814 28.4537C90.7935 28.0836 90.8999 27.6835 90.9005 27.2535C90.9193 26.8186 90.8033 26.3909 90.5525 25.9705C90.3017 25.5501 89.8871 25.1741 89.3087 24.8426C88.7535 24.5243 88.2344 24.3574 87.7515 24.3418C87.2802 24.3329 86.8625 24.4316 86.4984 24.6378C86.1342 24.8441 85.8494 25.1265 85.6438 25.4851C85.3985 25.9131 85.3416 26.3876 85.4732 26.9087C85.6114 27.4183 85.9994 27.8943 86.6372 28.3367L87.8268 29.157C88.6777 29.737 89.3376 30.3688 89.8063 31.0524C90.2933 31.7312 90.5702 32.4278 90.637 33.1423C90.7154 33.8635 90.549 34.5827 90.1379 35.2998C89.687 36.0864 89.0752 36.6578 88.3024 37.014C87.5411 37.3768 86.6826 37.5071 85.7269 37.4049C84.7827 37.3094 83.8016 36.9698 82.7837 36.3863Z" fill="#F40051"/>
<path d="M94.3036 46.8634L107.237 40.0895L108.351 42.2155L95.4171 48.9895L94.3036 46.8634ZM100.812 45.7121L102.655 44.7471L105.467 50.1153L103.624 51.0804L100.812 45.7121ZM106.322 42.8262L108.165 41.8612L111.116 47.4952L109.273 48.4603L106.322 42.8262Z" fill="#F40051"/>
<path d="M99.2641 64.2436C99.179 62.9264 99.3317 61.7741 99.7223 60.7869C100.127 59.8121 100.688 58.9876 101.406 58.3132C102.124 57.6389 102.906 57.1208 103.751 56.7589C104.61 56.4095 105.439 56.209 106.237 56.1574L106.677 56.1291C107.555 56.0724 108.443 56.1687 109.341 56.418C110.24 56.6806 111.068 57.1014 111.827 57.6804C112.6 58.2718 113.237 59.0257 113.737 59.942C114.238 60.8717 114.53 61.9751 114.612 63.2525C114.695 64.5298 114.547 65.655 114.169 66.6281C113.791 67.6011 113.256 68.4306 112.566 69.1165C111.888 69.8016 111.121 70.3255 110.262 70.6883C109.405 71.0643 108.537 71.2807 107.659 71.3374L107.22 71.3657C106.421 71.4173 105.573 71.3184 104.675 71.0691C103.791 70.8189 102.949 70.4056 102.15 69.8292C101.352 69.2662 100.689 68.5207 100.162 67.5927C99.6475 66.6639 99.3483 65.5476 99.2641 64.2436ZM101.479 64.1005C101.531 64.8989 101.724 65.6079 102.058 66.2277C102.392 66.8475 102.826 67.3672 103.361 67.787C103.896 68.2067 104.496 68.5086 105.163 68.6927C105.83 68.8901 106.53 68.9652 107.262 68.9179C108.034 68.8681 108.738 68.7024 109.374 68.4208C110.024 68.1383 110.581 67.755 111.044 67.2708C111.521 66.7991 111.879 66.2348 112.117 65.5781C112.355 64.9214 112.448 64.1939 112.397 63.3955C112.345 62.5972 112.159 61.8877 111.838 61.2671C111.518 60.6465 111.09 60.1263 110.555 59.7066C110.034 59.286 109.433 58.9774 108.752 58.7808C108.085 58.5968 107.366 58.5296 106.594 58.5795C105.862 58.6267 105.178 58.7845 104.541 59.0528C103.904 59.3344 103.348 59.7177 102.871 60.2028C102.395 60.6878 102.031 61.2591 101.779 61.9167C101.528 62.5743 101.428 63.3022 101.479 64.1005Z" fill="#F40051"/>
<path d="M98.7641 74.3572L112.344 79.9857L111.425 82.2028L97.8452 76.5743L98.7641 74.3572ZM95.3334 82.6344L103.041 80.8062L101.999 83.3189L94.2383 85.2764L95.3334 82.6344ZM102.837 77.7988L104.703 78.5723L103.248 82.0827C103.028 82.6123 102.944 83.1115 102.995 83.5801C103.059 84.0538 103.24 84.4684 103.541 84.8237C103.836 85.1913 104.236 85.4798 104.741 85.6891C105.233 85.8934 105.714 85.9699 106.183 85.9188C106.646 85.88 107.068 85.7156 107.448 85.4256C107.828 85.1357 108.128 84.7259 108.347 84.1963L109.802 80.6859L111.724 81.4823L110.391 84.6971C109.962 85.7317 109.429 86.5645 108.793 87.1954C108.168 87.8315 107.455 88.2287 106.653 88.3871C105.852 88.5455 104.958 88.4205 103.973 88.0121L103.677 87.8896C102.692 87.4812 101.974 86.9312 101.525 86.2398C101.07 85.5606 100.847 84.7754 100.856 83.8841C100.859 83.0051 101.075 82.0483 101.504 81.0136L102.837 77.7988Z" fill="#F40051"/>
<path d="M87.1686 91.4307C88.1566 90.5354 89.1536 89.9378 90.1595 89.6381C91.1644 89.3571 92.135 89.2963 93.0711 89.4557C94.0063 89.6339 94.8686 89.95 95.658 90.4042C96.4465 90.8772 97.1139 91.4151 97.66 92.0178L97.9555 92.3438C98.5554 93.0058 99.047 93.7568 99.4305 94.5969C99.8139 95.437 100.035 96.3163 100.094 97.2349C100.142 98.1623 99.9736 99.098 99.5873 100.042C99.1912 100.995 98.5238 101.896 97.5852 102.747C96.607 103.633 95.6056 104.226 94.5809 104.525C93.5561 104.823 92.5543 104.85 91.5753 104.603C90.5953 104.376 89.6853 103.878 88.8452 103.11L90.6385 101.485C91.2189 101.966 91.8229 102.256 92.4506 102.353C93.0774 102.468 93.703 102.414 94.3276 102.19C94.9423 101.975 95.5313 101.612 96.0944 101.102C96.6774 100.574 97.1021 99.9997 97.3685 99.3804C97.6251 98.77 97.736 98.1477 97.7011 97.5136C97.6662 96.8794 97.504 96.2437 97.2144 95.6065C96.9239 94.988 96.5145 94.3874 95.9863 93.8044C95.4849 93.2511 94.9363 92.7947 94.3404 92.4349C93.7436 92.0941 93.1219 91.8747 92.4754 91.7768C91.8289 91.6789 91.1844 91.7322 90.5419 91.9365C89.8895 92.1499 89.262 92.5296 88.6593 93.0757C87.7899 93.8636 87.2512 94.7386 87.0434 95.7006C86.8446 96.6726 87.0435 97.6169 87.6403 98.5336L85.8323 100.172C85.2417 99.3217 84.8673 98.3924 84.7093 97.384C84.5602 96.3855 84.6761 95.3718 85.0572 94.3427C85.4471 93.3236 86.1509 92.3529 87.1686 91.4307Z" fill="#F40051"/>
<path d="M79.5626 96.7892L84.2402 110.62L81.9857 111.382L77.3081 97.5517L79.5626 96.7892ZM77.687 97.4235L78.3534 99.3939L71.8739 101.585L71.2075 99.6149L77.687 97.4235ZM79.731 103.467L80.3974 105.438L74.4485 107.45L73.7821 105.479L79.731 103.467ZM81.6982 109.284L82.3646 111.254L76.0557 113.388L75.3893 111.417L81.6982 109.284Z" fill="#F40051"/>
<path d="M77.3918 64.1506C77.806 63.4332 77.5602 62.5158 76.8428 62.1016L65.1514 55.3516C64.434 54.9374 63.5166 55.1832 63.1024 55.9006C62.6882 56.6181 62.934 57.5354 63.6514 57.9497L74.0438 63.9497L68.0438 74.342C67.6295 75.0594 67.8754 75.9768 68.5928 76.391C69.3102 76.8052 70.2276 76.5594 70.6418 75.842L77.3918 64.1506ZM52.7666 71.2038L76.481 64.8495L75.7046 61.9517L51.9901 68.306L52.7666 71.2038Z" fill="#F40051"/>
</svg>
