<svg width="970" height="723" viewBox="0 0 970 723" fill="none" xmlns="http://www.w3.org/2000/svg">
<rect x="234" y="213" width="485" height="392" fill="#D9D9D9"/>
<g opacity="0.3" clip-path="url(#clip0_1_167)">
<path d="M67 639.676V630.118C106.847 608.752 147.969 589.854 190.133 573.529C236.021 556.324 282.291 543.324 328.944 530.324C348.829 524.588 369.096 518.088 388.981 510.824C412.075 502.235 431.967 486.75 445.958 466.471C456.605 450.666 465.214 433.579 471.579 415.618C480.374 392.676 486.875 368.588 493.376 344.882C502.171 314.676 511.349 284.088 517.85 252.735C524.35 221.382 529.704 195.382 536.205 167.088C541.625 140.848 549.697 115.227 560.296 90.6176C567.21 71.6937 578.733 54.7915 593.822 41.4396C608.912 28.0877 627.092 18.7074 646.718 14.1471C664.353 10.7827 682.321 9.49946 700.254 10.3235L797.766 14.5294C849.603 17.7198 901.635 14.3799 952.638 4.58824C959.522 4.58824 966.022 1.52941 972.906 0H1014.2L998.144 5.35294C948.38 19.6561 896.955 27.3689 845.184 28.2941C812.68 28.2941 779.794 28.2941 746.907 28.2941C722.9 27.4306 698.863 28.4534 675.016 31.3529C656.13 33.5878 637.975 39.9868 621.862 50.0882C599.811 65.2123 582.348 86.1127 571.386 110.5C560.17 134.257 551.455 159.117 545.382 184.676C538.499 212.971 532.763 241.647 525.88 269.559C515.555 310.088 504.466 350.618 493.376 390.765C488.001 412.697 480.575 434.076 471.197 454.618C459.439 482.285 438.133 504.81 411.16 518.088C402.019 522.384 392.558 525.964 382.862 528.794C354.565 536.441 325.885 543.324 297.205 550.588C240.424 564.439 185.007 583.379 131.626 607.176C110.976 617.5 89.1792 628.971 67 639.676Z" fill="white"/>
<path d="M83.0608 650H67H69.2944C126.147 617.853 186.435 592.202 249.022 573.529C287.262 562.441 328.944 554.029 368.714 546C386.149 543.041 403.206 538.168 419.573 531.471C445.812 519.741 466.691 498.591 478.08 472.206C484.908 458.353 490.414 443.887 494.523 429C501.024 406.059 506.76 382.735 512.878 359.412C521.674 325.382 530.851 291.735 539.264 257.706C545.382 234.382 550.736 211.059 557.237 188.118C563.416 164.632 572.539 142.022 584.387 120.824C592.873 103.675 604.949 88.5513 619.794 76.4786C634.639 64.406 651.907 55.6665 670.427 50.8529C682.958 47.5661 695.754 45.391 708.667 44.3529C733.906 44.3529 759.144 42.0588 785.147 41.6764C831.069 41.2032 876.918 37.8831 922.429 31.7353C956.654 27.3737 990.349 19.5593 1023 8.41174V21.0294H1019.94C973.266 35.1103 925.171 43.9587 876.541 47.4117C842.507 50.0882 808.091 51.6176 774.058 53.5294C749.432 54.036 724.884 56.4649 700.637 60.7941C681.755 64.2021 663.629 70.934 647.101 80.6764C623.446 95.9838 604.201 117.204 591.27 142.235C578.369 166.428 568.481 192.109 561.826 218.706C553.413 250.059 545.382 281.029 537.352 312.382C529.322 343.735 519.379 382.353 510.584 420.588C505.528 442.886 498.357 464.651 489.17 485.588C478.861 510.592 459.651 530.888 435.251 542.559C421.089 548.791 406.179 553.161 390.893 555.559C360.301 560.912 330.091 565.5 299.499 571.235C224.761 586.841 152.732 613.382 85.7376 650C84.8539 649.825 83.9445 649.825 83.0608 650Z" fill="white"/>
<path d="M116.712 650H98.7392H101.416C132.165 634.166 163.982 620.495 196.634 609.088C255.063 589.211 315.655 576.375 377.126 570.853C394.834 569.634 412.38 566.688 429.515 562.059C443.448 558.206 456.456 551.573 467.755 542.559C483.091 529.186 494.687 512.058 501.406 492.853C509.306 472.252 515.446 451.019 519.762 429.382C532.763 365.529 549.971 303.206 567.179 241.265C574.267 213.906 584.535 187.471 597.771 162.5C610.256 139.312 627.605 119.096 648.63 103.235C664.158 91.1689 681.793 82.0932 700.637 76.4706C726.778 70.4071 753.386 66.5698 780.176 65C818.416 61.9412 856.656 59.2647 894.896 55.8235C927.486 52.7774 959.817 47.4109 991.643 39.7647L1023 32.5V44.3529H1021.09C971.575 57.4013 921.045 66.227 870.04 70.7353C835.624 74.5588 800.826 77.6176 766.027 81.0588C744.33 83.2703 722.926 87.7558 702.166 94.4412C674.211 103.15 649.288 119.587 630.275 141.853C611.19 165.62 596.669 192.713 587.446 221.765C572.343 267.477 559.58 313.93 549.206 360.941C542.323 389.235 537.352 418.294 531.616 446.588C527.456 467.641 521.703 488.347 514.408 508.529C509.888 522.74 502.156 535.72 491.811 546.461C481.466 557.203 468.786 565.418 454.754 570.471C439.114 575.433 422.94 578.513 406.571 579.647L343.858 584.235C273.586 591.195 204.964 609.803 140.803 639.294L116.712 650Z" fill="white"/>
<path d="M1023 55.8235V68.0588H1020.71C984.76 76.4706 946.52 82.9706 910.574 87.9412L798.914 102.088C774.36 105.292 750.163 110.796 726.64 118.529C700.367 127.68 676.45 142.542 656.613 162.046C636.776 181.551 621.512 205.211 611.92 231.324C603.507 251.206 596.624 271.853 589.741 292.882C578.264 326.841 569.317 361.603 562.973 396.882C558.002 426.324 553.413 455.765 548.824 484.824C545.918 505.342 541.183 525.56 534.675 545.235C528.169 565.19 514.561 582.062 496.435 592.647C488.966 596.636 480.99 599.595 472.726 601.441C454.616 605.12 436.119 606.533 417.661 605.647C391.275 605.647 364.89 603.735 338.122 605.647C275.556 609.604 214.187 624.621 156.864 650C156.864 650 156.864 650 154.57 650H134.302H136.214L164.13 638.147C209.938 619.242 258.015 606.388 307.147 599.912C336.172 595.96 365.424 593.916 394.717 593.794C414.721 594.245 434.717 592.579 454.371 588.824C468.354 586.142 481.476 580.106 492.611 571.235C507.501 558.702 518.4 542.089 523.968 523.441C530.813 503.265 535.93 482.543 539.264 461.5C544.618 433.971 549.206 406.059 554.942 378.529C562.623 343.41 572.067 308.699 583.24 274.529C589.457 253.007 597.123 231.93 606.184 211.441C615.803 186.756 630.718 164.48 649.878 146.181C669.038 127.882 691.977 114.006 717.08 105.529C738.526 98.8977 760.547 94.2894 782.853 91.7647L901.779 76.4706C935.182 72.5388 968.366 66.9238 1001.2 59.6471L1023 55.8235Z" fill="white"/>
<path d="M1023 78.7647V91.3824H1020.71L893.749 110.882C862.775 115.853 831.418 120.441 800.443 126.176C777.175 130.295 754.462 137.095 732.758 146.441C688.192 165.749 652.645 201.292 633.334 245.853C624.516 265.442 616.73 285.479 610.008 305.882C598.396 337.394 589.692 369.902 584.005 403C579.034 432.824 576.357 463.029 573.298 493.618C571.003 516.559 569.091 539.5 564.885 562.059C562.871 574.072 559.669 585.855 555.325 597.235C552.375 606.657 547.011 615.143 539.766 621.85C532.521 628.558 523.647 633.253 514.026 635.471C507.38 637.009 500.58 637.778 493.758 637.765C470.428 638.136 447.117 636.215 424.162 632.03C400.07 628.971 376.362 625.912 351.888 625.147C307.248 624.739 262.793 630.924 219.96 643.5L198.928 650H174.072H176.366C190.133 645.412 203.899 640.059 217.666 635.853C275.031 618.787 335.05 612.436 394.717 617.118C416.514 619.029 438.693 620.177 460.872 620.941C473.147 621.327 485.407 619.779 497.2 616.353C507.962 613.17 517.776 607.391 525.778 599.523C533.78 591.655 539.724 581.941 543.088 571.235C548.473 557.294 552.32 542.806 554.56 528.029C558.384 501.647 562.208 475.265 565.267 448.882C570.581 402.902 580.444 357.562 594.712 313.529C602.925 286.703 612.758 260.4 624.157 234.765C639.838 199.17 665.806 169.076 698.725 148.353C718.641 136.729 740.158 128.098 762.586 122.735C795.912 115.141 829.608 109.271 863.539 105.147L993.555 86.0294C1003.5 83.3529 1013.06 80.6765 1023 78.7647Z" fill="white"/>
<path d="M622.627 0C606.629 5.66909 592.088 14.8172 580.053 26.7847C568.018 38.7522 558.788 53.2408 553.03 69.2059C543.973 90.9118 537.057 113.45 532.381 136.5C525.498 168.235 518.614 200.353 512.496 232.853C505.432 269.265 496.368 305.261 485.346 340.676C478.08 364.382 471.197 388.088 462.019 410.647C454.943 429.198 445.149 446.594 432.957 462.265C418.394 479.071 400.044 492.176 379.421 500.5C355.778 510.034 331.654 518.329 307.147 525.353C256.67 541.029 206.194 557.088 157.246 577.735C128.184 589.971 99.1216 603.353 70.824 615.971H68.1472V611.765H70.4416L133.92 581.941C185.162 559.382 237.168 541.029 289.174 523.441C316.092 514.973 342.518 505.016 368.331 493.618C384.052 486.253 398.507 476.445 411.16 464.559C427.913 446.816 440.919 425.88 449.4 403C458.195 382.735 465.078 361.324 471.962 339.912C482.903 306.992 491.716 273.403 498.347 239.353C504.466 203.794 510.966 168.618 517.467 133.441C521.668 107.563 527.674 82.0108 535.44 56.9706C541.952 35.7379 553.196 16.2589 568.326 0V0H622.627Z" fill="white"/>
<path d="M548.442 650L552.648 646.559C558.599 640.689 563.284 633.662 566.414 625.912C572.556 611.026 576.423 595.301 577.886 579.265C580.563 554.029 582.475 529.176 584.387 502.794C586.682 471.059 588.976 439.706 593.565 408.353C599.329 373.329 608.684 338.991 621.48 305.882C628.418 286.324 636.462 267.176 645.571 248.529C664.956 209.036 697.371 177.436 737.347 159.059C761.042 147.968 786.124 140.123 811.915 135.735C844.419 129.618 876.923 124.265 909.81 119.294L1020.71 102.471H1023V114.706H1020.71L944.226 125.794C903.691 131.529 863.539 136.882 823.77 145.676C797.466 151.042 771.822 159.247 747.29 170.147C708.438 187.935 676.666 218.222 657.043 256.176C637.867 293.235 622.985 332.361 612.685 372.794C604.837 406.692 600.228 441.259 598.918 476.029C597.006 509.676 596.242 543.324 594.712 576.971C594.431 601.607 591.222 626.122 585.152 650H548.442Z" fill="white"/>
<path d="M515.938 0H540.411C537.352 6.88235 533.91 13.3824 530.851 20.2647C523.991 38.4758 518.87 57.2949 515.555 76.4706C509.054 114.706 502.554 152.941 496.818 191.176C490.62 236.89 480.252 281.94 465.843 325.765C458.195 347.941 451.312 370.5 441.752 391.529C432.377 415.013 418.326 436.347 400.453 454.235C387.202 466.57 372.106 476.761 355.712 484.441C329.649 496.941 302.829 507.796 275.408 516.941C216.518 537.971 158.011 560.147 100.651 586.912L67 602.971V592.647H69.6768C92.2384 582.324 114.035 571.618 136.597 562.441L275.408 507C301.528 496.976 327.062 485.487 351.888 472.588C389.656 451.815 418.699 418.162 433.722 377.765C440.222 362.088 446.341 346.412 452.077 330.353C462.424 302.606 470.606 274.099 476.55 245.088C483.816 206.853 488.787 164.412 494.141 124.265C498.265 82.3532 505.551 40.8134 515.938 0V0Z" fill="white"/>
<path d="M1023 125.794V137.647L961.434 144.912C920.32 149.714 879.478 156.605 839.066 165.559C812.653 170.875 786.975 179.348 762.586 190.794C735.429 203.326 711.591 222.053 692.989 245.471C679.408 262.754 668.218 281.788 659.72 302.059C645.395 332.154 634.739 363.862 627.981 396.5C622.239 427.533 619.168 459.001 618.803 490.559C618.803 532.618 618.803 574.294 621.862 616.353C621.862 627.441 621.862 638.912 621.862 650H602.742C602.742 628.206 602.742 606.412 604.654 584.618C604.654 546.382 604.654 508.147 604.654 469.912C605.954 440.198 609.792 410.649 616.126 381.588C624.369 346.55 636.556 312.559 652.454 280.265C667.304 249.59 689.504 223.058 717.08 203.029C737.862 187.392 761.132 175.371 785.912 167.471C820.687 156.282 856.392 148.221 892.602 143.382C930.842 137.647 969.082 132.676 1005.03 127.706L1023 125.794Z" fill="white"/>
<path d="M655.131 650H640.6C638.688 630.5 636.776 611.765 635.246 591.118C631.134 547.145 630.112 502.939 632.187 458.824C633.413 429.179 638.162 399.786 646.336 371.265C654.395 344.858 664.893 319.258 677.693 294.794C692.061 265.443 713.155 239.897 739.259 220.235C758.888 206.185 780.554 195.224 803.502 187.735C841.468 174.841 880.691 165.997 920.517 161.353C946.52 157.147 972.906 152.941 998.909 152.941C1006.94 152.941 1014.97 152.941 1023 150.647V163.265H1013.44C964.741 166.222 916.311 172.61 868.51 182.382C839.231 188.381 810.743 197.747 783.618 210.294C755.822 223.01 731.348 241.986 712.109 265.735C696.863 285.145 684.023 306.329 673.869 328.824C657.716 363.694 647.629 401.063 644.042 439.324C641.366 473.173 641.366 507.18 644.042 541.029C645.954 576.971 650.16 613.676 655.131 650Z" fill="white"/>
<path d="M481.139 0H498.347C498.162 0.882497 498.162 1.79397 498.347 2.67647C495.288 23.3235 492.229 43.9706 489.552 65L474.638 198.059C466.801 258.502 449.509 317.338 423.397 372.412C412.426 399.771 395.128 424.143 372.92 443.529C357.276 455.879 340.354 466.519 322.443 475.265C293.381 490.176 263.554 502.029 233.726 513.5C176.366 535.294 121.301 559 67 584.235V573.529H69.6768L131.626 546.382L268.525 487.882C293.562 477.267 317.619 464.473 340.416 449.647C371.162 429.001 395.636 400.297 411.16 366.676C416.896 354.824 421.867 342.971 427.221 331.118C446.843 285.427 459.725 237.129 465.461 187.735C470.05 149.5 473.109 107.824 476.168 67.6765C476.933 45.1176 479.227 22.5588 481.139 0Z" fill="white"/>
<path d="M678.84 650H667.368L662.779 620.559C655.906 575.255 652.455 529.498 652.454 483.676C652.58 458.02 655.012 432.427 659.72 407.206C668.206 366.464 684.013 327.6 706.373 292.5C720.125 270.254 738.357 251.113 759.909 236.294C775.382 225.573 792.069 216.718 809.621 209.912C843.806 196.941 879.335 187.836 915.546 182.765C951.146 177.481 987.026 174.289 1023 173.206V186.588C977.537 186.776 932.2 191.386 887.63 200.353C859.482 205.994 832.039 214.713 805.797 226.353C780.628 236.956 757.961 252.716 739.259 272.618C710.223 305.752 688.931 344.936 676.928 387.324C668.02 417.751 663.513 449.296 663.544 481C662.899 515.137 664.945 549.272 669.662 583.088C672.722 604.5 678.84 627.059 678.84 650Z" fill="white"/>
<path d="M453.224 0H467.373C467.561 1.52364 467.561 3.0646 467.373 4.58823L464.696 48.5588C462.784 90.6176 461.254 133.059 456.283 174.735C453.644 204.019 448.657 233.044 441.37 261.529C432.62 291.852 421.364 321.395 407.718 349.853C391.522 385.074 366.33 415.406 334.68 437.794C315.924 451.65 295.809 463.564 274.643 473.353C236.403 490.941 198.163 507.382 159.923 524.206L67 565.882V555.559L94.1504 544.088C142.715 522.676 191.662 501.265 239.845 479.471C266.626 467.931 292.237 453.847 316.325 437.412C341.9 420.194 363.963 398.265 381.333 372.794C393.955 352.273 404.951 330.796 414.219 308.559C427.484 277.144 436.487 244.096 440.987 210.294C447.117 167.601 450.566 124.566 451.312 81.4412C452.077 54.2941 452.842 27.1471 453.224 0Z" fill="white"/>
<path d="M702.931 650H691.459C682.964 609.021 677.342 567.498 674.634 525.735C672.552 500.288 672.552 474.712 674.634 449.265C677.824 412.595 688.082 376.889 704.843 344.118C722.167 305.463 750.327 272.659 785.912 249.676C809.031 236.033 833.845 225.491 859.715 218.324C912.916 203.939 967.902 197.243 1023 198.441V212.588C989.789 210.671 956.469 212.208 923.576 217.176C889.64 221.854 856.468 230.982 824.917 244.324C778.008 263.335 739.66 298.823 717.08 344.118C705.013 366.518 696.009 390.438 690.312 415.235C683.368 450.6 681.182 486.733 683.811 522.676C686.837 563.291 692.586 603.656 701.019 643.5C701.019 643.5 702.549 650 702.931 650Z" fill="white"/>
<path d="M429.133 0H441.37C441.37 0 441.37 1.91176 441.37 3.05882C441.37 18.3529 441.37 33.6471 441.37 49.3235C441.941 88.5049 440.409 127.689 436.781 166.706C434.665 193.228 430.575 219.556 424.544 245.471C418.162 268.26 409.978 290.507 400.07 312C380.991 358.9 349.208 399.55 308.294 429.382C284.085 446.166 258.501 460.875 231.814 473.353C181.72 497.059 128.566 520.765 76.1776 542.941L67 546.382V535.294H70.0592L163.747 497.059C197.656 482.337 230.721 465.743 262.789 447.353C287.925 432.976 311.066 415.365 331.621 394.971C356.853 367.922 377.054 336.587 391.275 302.441C405.903 271.666 416.075 238.965 421.485 205.324C425.963 176.466 428.518 147.343 429.133 118.147C429.133 79.9118 429.133 44.7353 429.133 8.02941V0Z" fill="white"/>
<path d="M1023 225.588V240.882H1008.85C975.355 237.052 941.481 238.082 908.28 243.941C878.91 249.118 850.445 258.52 823.77 271.853C796.241 287.036 772.19 307.803 753.159 332.824C734.127 357.845 720.536 386.567 713.256 417.147C705.972 445.345 702.88 474.461 704.078 503.559C705.34 540.942 709.689 578.157 717.08 614.824C719.374 626.676 722.051 638.147 724.346 650H712.874C712.874 650 712.874 647.324 712.874 645.794C709.814 628.206 705.99 610.235 702.931 592.265C696.036 552.768 693.344 512.652 694.901 472.588C695.636 438.063 703.173 404.022 717.08 372.412C729.691 342.638 748.008 315.62 770.998 292.882C790.615 274.602 813.604 260.316 838.683 250.824C892.013 230.236 949.083 221.116 1006.17 224.059L1023 225.588Z" fill="white"/>
<path d="M1023 370.882V393.441L1003.5 382.353C977.742 367.01 947.559 360.812 917.84 364.765C844.037 374.324 796.619 450.412 793.56 520C792.756 545.552 794.034 571.127 797.384 596.471C799.678 614.059 802.738 632.029 805.414 649.618H793.56C791.648 637.765 789.354 625.529 787.442 613.676C782.034 583.265 779.474 552.416 779.794 521.529C779.092 493.005 785.051 464.709 797.199 438.891C809.347 413.072 827.348 390.44 849.773 372.794C870.464 355.896 895.66 345.44 922.238 342.721C948.815 340.003 975.606 345.141 999.291 357.5C1007.5 361.404 1015.42 365.876 1023 370.882Z" fill="white"/>
<path d="M1023 288.676V309.324C1009.47 302.686 995.039 298.049 980.171 295.559C945.563 290.189 910.156 293.743 877.306 305.882C850.587 315.784 826.42 331.531 806.571 351.973C786.723 372.414 771.694 397.033 762.586 424.029C753.47 448.506 748.682 474.382 748.437 500.5C747.901 529.967 750.206 559.417 755.32 588.441C758.762 609.088 762.968 629.353 766.792 650H755.32C755.32 641.588 751.878 633.177 750.349 624.765C742.473 587.899 737.867 550.411 736.582 512.735C735.443 486.988 738.149 461.214 744.613 436.265C757.274 383.31 790.233 337.448 836.389 308.559C879.653 283.144 929.839 272.038 979.789 276.824C994.669 278.77 1009.21 282.759 1023 288.676Z" fill="white"/>
<path d="M1023 328.059V350.235C989.038 328.351 947.797 320.791 908.28 329.206C888.023 333.156 868.745 341.066 851.552 352.483C834.359 363.9 819.59 378.598 808.091 395.735C786.271 425.497 773.043 460.678 769.851 497.441C767.749 521.484 767.749 545.663 769.851 569.706C772.91 596.853 777.499 623.235 782.853 650H774.44C766.577 613.317 761.211 576.144 758.379 538.735C756.512 513.805 757.926 488.738 762.586 464.176C771.66 418.648 796.094 377.615 831.8 347.941C853.837 329.823 880.182 317.706 908.28 312.765C947.103 303.651 987.921 309.092 1023 328.059Z" fill="white"/>
<path d="M744.995 650H734.288C731.611 636.235 728.552 622.471 725.875 608.324C718.815 571.648 715.103 534.406 714.786 497.059C714.27 468.946 718.273 440.932 726.64 414.088C734.707 385.88 748.427 359.606 766.965 336.863C785.503 314.121 808.472 295.385 834.477 281.794C860.588 269.131 888.418 260.37 917.075 255.794C948.348 250.631 980.256 250.631 1011.53 255.794H1023V273L1008.47 267.647C981.384 263.062 953.72 263.062 926.635 267.647C895.096 271.575 864.524 281.16 836.389 295.941C811.756 309.844 790.163 328.546 772.889 350.942C755.614 373.337 743.008 398.97 735.818 426.324C728.289 452.004 724.932 478.726 725.875 505.471C726.242 541.171 729.954 576.758 736.965 611.765L744.995 650Z" fill="white"/>
<path d="M407.718 0H418.426C418.426 14.1471 418.426 28.6765 418.426 42.8235C420.161 79.5123 420.033 116.265 418.043 152.941C416.259 175.118 413.964 196.275 411.16 216.412C404.603 246.24 394.056 275.048 379.803 302.059C358.752 347.364 326.832 386.767 286.88 416.765C268.133 431.011 248.317 443.794 227.608 455C186.309 476.412 143.48 497.059 101.034 513.5L67 527.265V516.941C97.2096 503.941 127.419 491.706 157.629 478.706C191.587 463.698 224.318 446.056 255.523 425.941C301.85 396.4 339.364 354.928 364.125 305.882C375.366 285.498 384.71 264.124 392.04 242.029C401.752 208.165 407.275 173.238 408.483 138.029C410.012 107.588 410.012 77.0887 408.483 46.6471L407.718 0Z" fill="white"/>
<path d="M826.446 650H814.974C814.974 640.441 811.915 630.5 810.768 620.941C806.562 593.876 804.643 566.505 805.032 539.118C805.063 512.794 810.531 486.76 821.093 462.647C830.764 435.961 849.386 413.452 873.789 398.952C898.192 384.451 926.867 378.855 954.933 383.118C972.38 386.728 989.155 393.05 1004.64 401.853L1023 411.794V434.353L995.85 420.588C980.748 412.853 964.465 407.685 947.667 405.294C929.335 402.961 910.715 405.723 893.851 413.278C876.986 420.832 862.529 432.887 852.067 448.118C830.127 477.042 818.303 512.374 818.416 548.676C817.899 573.092 819.306 597.511 822.622 621.706C823.77 632.029 824.917 640.823 826.446 650Z" fill="white"/>
<path d="M67 507.382V497.059H69.6768C87.2672 490.176 105.24 483.294 122.83 475.647C159.877 460.023 195.563 441.351 229.52 419.824C280.463 387.367 321.582 341.626 348.446 287.529C363.918 259.794 375.133 229.892 381.715 198.824C386.181 173.553 388.864 148 389.746 122.353C389.746 88.7059 389.746 55.4412 389.746 21.7941C389.746 14.1471 389.746 6.11764 389.746 -1.52942H400.07V2.67646C400.07 18.7353 400.07 35.1765 400.07 51.2353C402.367 87.7777 402.367 124.428 400.07 160.971C396.748 203.113 385.459 244.242 366.802 282.176C349.484 317.331 326.632 349.476 299.117 377.382C276.259 399.674 250.54 418.832 222.637 434.353C183.325 457.133 142.431 477.066 100.269 494L67 507.382Z" fill="white"/>
<path d="M1023 455V476.794L1018.41 474.882C1002.65 468.313 986.416 462.945 969.846 458.824C952.867 453.853 934.819 453.853 917.84 458.824C901.95 464.755 887.718 474.414 876.338 486.989C864.959 499.565 856.767 514.688 852.45 531.088C846.624 550.15 844.039 570.054 844.802 589.971C844.874 610.028 846.023 630.066 848.243 650H836.389L834.094 630.882C831.415 606.637 830.648 582.219 831.8 557.853C832.284 533.62 838.301 509.818 849.39 488.265C857.065 470.189 869.903 454.78 886.297 443.966C902.69 433.152 921.909 427.414 941.549 427.471C958.064 428.239 974.284 432.131 989.349 438.941C1000.06 443.912 1011.53 449.647 1023 455Z" fill="white"/>
<path d="M368.331 0H378.274L380.568 50.4706C382.23 87.0746 381.207 123.751 377.509 160.206C375.148 188.428 368.574 216.137 358.006 242.412C347.43 267.222 334.631 291.025 319.766 313.529C294.666 352.207 261.702 385.167 223.019 410.265C186.795 433.91 148.378 454.013 108.299 470.294C94.1504 476.412 80.384 481.382 66.2352 486.735V475.265H68.912C119.676 457.826 168.096 434.197 213.077 404.912C265.108 370.795 307.088 323.409 334.68 267.647C347.305 243.533 356.568 217.803 362.213 191.176C369.358 159.04 372.948 126.215 372.92 93.2941C370.626 62.3235 369.096 30.9706 368.331 0Z" fill="white"/>
<path d="M67 465.324V452.706H70.0592C113.258 438.705 154.406 419.033 192.427 394.206C245.662 359.006 288.454 310.144 316.325 252.735C332.83 221.654 343.582 187.846 348.064 152.941C351.563 123.125 352.969 93.1007 352.27 63.0882L349.976 0H359.154C359.342 1.52364 359.342 3.0646 359.154 4.58824C359.154 18.7353 359.154 32.5 359.154 46.2647C361.583 81.7868 361.455 117.437 358.771 152.941C356.174 179.111 350.131 204.824 340.798 229.412C315.03 296.686 269.757 354.735 210.782 396.118C174.238 421.131 134.824 441.67 93.3856 457.294L67 465.324Z" fill="white"/>
<path d="M67 441.618V428.618C103.712 418.268 138.743 402.687 171.013 382.353C227.837 345.626 273.058 293.515 301.411 232.088C314.478 205.944 323.503 177.969 328.179 149.118C332.643 120.404 334.817 91.3814 334.68 62.3235C334.68 41.2941 332.003 20.6471 331.238 0H341.181V3.44118V27.1471C343.663 62.535 343.663 98.0533 341.181 133.441C339.323 159.542 333.92 185.268 325.12 209.912C303.714 265.915 269.232 315.992 224.549 355.971C193.901 382.254 159.648 404.014 122.83 420.588C104.758 428.95 86.098 435.978 67 441.618H67Z" fill="white"/>
<path d="M296.44 0H306.382C306.573 3.43854 306.573 6.88499 306.382 10.3235C307.657 41.6862 307.019 73.0974 304.47 104.382C302.755 129.473 297.476 154.191 288.792 177.794C269.384 229.736 238.541 276.649 198.546 315.059C162.567 351.078 116.844 375.797 67 386.176L67 368.206H70.4416C96.3509 363.665 121.146 354.19 143.48 340.294C196.275 306.222 238.103 257.627 263.936 200.353C275.688 177.026 284.18 152.196 289.174 126.559C295.998 84.7407 298.433 42.3242 296.44 0Z" fill="white"/>
<path d="M67 416V400.706H71.9712C117.193 388.021 159.133 365.699 194.91 335.272C230.687 304.846 259.453 267.036 279.232 224.441C290.126 203.821 298.595 182.009 304.47 159.441C310.986 132.262 314.323 104.419 314.413 76.4706C314.413 51.2353 314.413 26 314.413 0H323.59C326.268 39.2093 326.268 78.5554 323.59 117.765C321.716 142.869 316.309 167.583 307.53 191.176C288.814 241.726 259.772 287.823 222.254 326.529C192.113 356.711 156.571 380.964 117.477 398.029C101.278 405.653 84.372 411.672 67 416H67Z" fill="white"/>
<path d="M67 351.382V331.118H78.472C107.966 325.482 135.499 312.31 158.394 292.882C191.502 265.912 218.597 232.308 237.933 194.235C251.847 169.308 262.147 142.531 268.525 114.706C273.19 90.7598 275.749 66.4513 276.173 42.0588C276.173 27.9118 276.173 13.3823 276.173 -0.764709H286.115V3.44117C286.115 28.2941 286.115 53.1471 286.115 77.6176C285.228 103.637 280.591 129.393 272.349 154.088C255.049 202.172 227.818 246.076 192.427 282.941C166.744 310.414 134.893 331.384 99.504 344.118C89.0054 347.853 78.09 350.293 67 351.382H67Z" fill="white"/>
<path d="M67 311.618V289.441H68.912C99.0034 287.397 127.604 275.582 150.363 255.794C179.189 231.108 202.843 200.959 219.96 167.088C231.688 145.608 240.68 122.744 246.728 99.0294C253.049 75.0147 256.893 50.4157 258.2 25.6176C258.2 16.8235 258.2 8.41177 258.2 0H268.907C268.907 0 268.907 2.29412 268.907 3.44118C268.907 22.1765 268.907 41.6765 268.907 59.6471C268.004 83.3221 263.755 106.75 256.288 129.235C238.402 180.513 208.355 226.694 168.718 263.824C147.601 285.116 121.209 300.422 92.2384 308.176C84.208 310.088 75.4128 310.471 67 311.618Z" fill="white"/>
<path d="M871.952 650H859.333C859.144 648.093 859.144 646.172 859.333 644.265C858.185 625.93 858.185 607.541 859.333 589.206C859.902 567.362 865.392 545.928 875.394 526.5C880.967 514.537 889.207 504.009 899.481 495.724C909.756 487.439 921.792 481.618 934.666 478.706C949.69 475.756 965.218 476.677 979.789 481.382C994.702 485.588 1009.23 490.941 1024.15 495.912V516.941H1021.09C1004.47 511.268 987.293 507.422 969.846 505.471C953.882 503.462 937.69 506.54 923.576 514.265C911.401 521.731 900.992 531.752 893.069 543.635C885.146 555.518 879.898 568.979 877.688 583.088C873.98 601.708 872.567 620.713 873.482 639.676C873.139 643.14 872.629 646.586 871.952 650Z" fill="white"/>
<path d="M236.403 0H247.11C247.11 11.8529 247.11 23.7059 247.11 35.5588C246.064 57.0646 242.47 78.3704 236.403 99.0294C221.82 146.913 195.535 190.409 159.923 225.588C142.113 243.594 120.001 256.755 95.68 263.824C85.3552 267.647 76.1776 267.647 67 267.647V243.559H73.8832C96.683 240.89 118.277 231.883 136.214 217.559C177.52 183.983 207.876 138.854 223.402 87.9412C231.753 59.3633 236.128 29.7716 236.403 0Z" fill="white"/>
<path d="M67 221.382V195.382H70.0592C85.6405 193.476 100.634 188.262 114.035 180.088C135.232 166.87 153.355 149.27 167.189 128.471C190.9 95.3082 206.13 56.8452 211.547 16.4412L213.842 0H225.696C224.78 22.4954 221.316 44.8144 215.371 66.5294C204.085 107.1 183.385 144.435 154.952 175.5C137.612 195.73 114.758 210.476 89.1792 217.941C81.8488 219.461 74.4463 220.61 67 221.382H67Z" fill="white"/>
<path d="M884.954 650C884.683 630.511 887.128 611.079 892.219 592.265C897.76 572.182 909.711 554.46 926.253 541.794C938.111 533.646 952.028 529.007 966.405 528.412C984.23 528.235 1001.99 530.552 1019.18 535.294H1023V557.853C1009.16 555.124 995.03 554.097 980.936 554.794C965.223 555.576 950.134 561.184 937.725 570.853C926.303 580.679 917.092 592.812 910.699 606.454C904.306 620.095 900.875 634.937 900.632 650H884.954Z" fill="white"/>
<path d="M67 144.912L79.6192 141.853C108.415 131.184 132.971 111.461 149.598 85.6471C167.973 60.0041 180.86 30.8479 187.456 0L201.987 0C198.345 28.0873 189.665 55.2874 176.366 80.2941C161.626 109.443 139.799 134.424 112.888 152.941C99.393 162.983 83.6334 169.548 67 172.059L67 144.912Z" fill="white"/>
<path d="M916.31 650C917.839 641.337 920.676 632.957 924.723 625.147C930.175 613.109 938.502 602.594 948.97 594.527C959.438 586.46 971.729 581.088 984.76 578.882C996.704 577.541 1008.76 577.541 1020.71 578.882H1023V601.824C1011.47 601.761 999.997 603.437 988.966 606.794C971.954 611.862 957.14 622.5 946.902 637C943.791 641.526 940.981 646.252 938.49 651.147L916.31 650Z" fill="white"/>
<path d="M225.696 650L242.904 645.412C278.725 637.043 315.516 633.57 352.27 635.088C376.568 636.212 400.737 639.281 424.544 644.265L449.4 650H451.694H387.834H385.157C349.894 645.051 314.113 645.051 278.85 650H269.29H225.696Z" fill="white"/>
<path d="M917.84 0L902.544 2.29412C866.318 5.75928 829.869 6.27078 793.56 3.82353L750.731 0H917.84Z" fill="white"/>
</g>
<g filter="url(#filter0_f_1_167)">
<rect x="50" y="96" width="409" height="220" fill="#222222" fill-opacity="0.05"/>
</g>
<rect x="50" y="106" width="426" height="220" fill="white"/>
<path d="M182.12 273V266.28C182.12 264.808 182.344 263.528 182.792 262.44C183.272 261.352 184.04 260.392 185.096 259.56C186.184 258.696 187.608 257.88 189.368 257.112L195.32 254.472C196.792 253.8 197.912 252.984 198.68 252.024C199.48 251.032 199.88 249.768 199.88 248.232C199.88 246.536 199.368 245.192 198.344 244.2C197.352 243.176 195.928 242.664 194.072 242.664C192.216 242.664 190.776 243.176 189.752 244.2C188.76 245.224 188.264 246.648 188.264 248.472H181.688C181.688 246.296 182.152 244.344 183.08 242.616C184.008 240.856 185.384 239.48 187.208 238.488C189.032 237.464 191.32 236.952 194.072 236.952C196.824 236.952 199.112 237.448 200.936 238.44C202.76 239.432 204.136 240.76 205.064 242.424C205.992 244.056 206.456 245.88 206.456 247.896V248.52C206.456 251.144 205.72 253.336 204.248 255.096C202.776 256.824 200.616 258.328 197.768 259.608L191.816 262.248C190.696 262.728 189.912 263.24 189.464 263.784C189.016 264.296 188.792 265 188.792 265.896V268.968L187.16 267.192H206.6V273H182.12ZM225.846 273.912C223.094 273.912 220.758 273.464 218.838 272.568C216.918 271.64 215.35 270.392 214.134 268.824C212.918 267.224 212.022 265.4 211.446 263.352C210.902 261.272 210.63 259.096 210.63 256.824V254.136C210.63 250.904 211.174 247.992 212.262 245.4C213.35 242.808 215.014 240.76 217.254 239.256C219.494 237.72 222.358 236.952 225.846 236.952C229.302 236.952 232.15 237.72 234.39 239.256C236.63 240.76 238.278 242.808 239.334 245.4C240.422 247.992 240.966 250.904 240.966 254.136V256.824C240.966 259.096 240.678 261.272 240.102 263.352C239.558 265.4 238.678 267.224 237.462 268.824C236.278 270.392 234.726 271.64 232.806 272.568C230.886 273.464 228.566 273.912 225.846 273.912ZM225.846 267.672C228.694 267.672 230.79 266.696 232.134 264.744C233.478 262.76 234.15 259.688 234.15 255.528C234.15 251.112 233.462 247.96 232.086 246.072C230.71 244.152 228.63 243.192 225.846 243.192C223.03 243.192 220.918 244.152 219.51 246.072C218.134 247.96 217.446 251.08 217.446 255.432C217.446 259.624 218.134 262.712 219.51 264.696C220.886 266.68 222.998 267.672 225.846 267.672ZM260.687 273.912C257.935 273.912 255.599 273.464 253.679 272.568C251.759 271.64 250.191 270.392 248.975 268.824C247.759 267.224 246.863 265.4 246.287 263.352C245.743 261.272 245.471 259.096 245.471 256.824V254.136C245.471 250.904 246.015 247.992 247.103 245.4C248.191 242.808 249.855 240.76 252.095 239.256C254.335 237.72 257.199 236.952 260.687 236.952C264.143 236.952 266.991 237.72 269.231 239.256C271.471 240.76 273.119 242.808 274.175 245.4C275.263 247.992 275.807 250.904 275.807 254.136V256.824C275.807 259.096 275.519 261.272 274.943 263.352C274.399 265.4 273.519 267.224 272.303 268.824C271.119 270.392 269.567 271.64 267.647 272.568C265.727 273.464 263.407 273.912 260.687 273.912ZM260.687 267.672C263.535 267.672 265.631 266.696 266.975 264.744C268.319 262.76 268.991 259.688 268.991 255.528C268.991 251.112 268.303 247.96 266.927 246.072C265.551 244.152 263.471 243.192 260.687 243.192C257.871 243.192 255.759 244.152 254.351 246.072C252.975 247.96 252.287 251.08 252.287 255.432C252.287 259.624 252.975 262.712 254.351 264.696C255.727 266.68 257.839 267.672 260.687 267.672ZM289.288 273L302.2 237.96H307.72L294.808 273H289.288ZM286.792 257.064C284.936 257.064 283.4 256.648 282.184 255.816C280.968 254.952 280.056 253.816 279.448 252.408C278.872 251 278.584 249.464 278.584 247.8V246.552C278.584 244.728 278.888 243.128 279.496 241.752C280.104 240.344 281.016 239.256 282.232 238.488C283.48 237.688 285 237.288 286.792 237.288C288.648 237.288 290.184 237.688 291.4 238.488C292.616 239.256 293.528 240.344 294.136 241.752C294.744 243.128 295.048 244.728 295.048 246.552V247.8C295.048 249.464 294.744 251 294.136 252.408C293.56 253.816 292.664 254.952 291.448 255.816C290.264 256.648 288.712 257.064 286.792 257.064ZM286.792 252.6C287.944 252.6 288.792 252.184 289.336 251.352C289.912 250.488 290.2 249.112 290.2 247.224C290.2 245.176 289.912 243.752 289.336 242.952C288.76 242.152 287.912 241.752 286.792 241.752C285.672 241.752 284.824 242.152 284.248 242.952C283.704 243.752 283.432 245.16 283.432 247.176C283.432 249.064 283.704 250.44 284.248 251.304C284.824 252.168 285.672 252.6 286.792 252.6ZM309.976 273.72C308.12 273.72 306.584 273.304 305.368 272.472C304.152 271.608 303.24 270.472 302.632 269.064C302.056 267.656 301.768 266.12 301.768 264.456V263.208C301.768 261.384 302.072 259.784 302.68 258.408C303.288 257 304.2 255.912 305.416 255.144C306.664 254.344 308.184 253.944 309.976 253.944C311.832 253.944 313.368 254.344 314.584 255.144C315.8 255.912 316.712 257 317.32 258.408C317.928 259.784 318.232 261.384 318.232 263.208V264.456C318.232 266.12 317.928 267.656 317.32 269.064C316.744 270.472 315.848 271.608 314.632 272.472C313.448 273.304 311.896 273.72 309.976 273.72ZM309.976 269.256C311.128 269.256 311.976 268.84 312.52 268.008C313.096 267.144 313.384 265.768 313.384 263.88C313.384 261.832 313.096 260.408 312.52 259.608C311.944 258.808 311.096 258.408 309.976 258.408C308.856 258.408 308.008 258.808 307.432 259.608C306.888 260.408 306.616 261.816 306.616 263.832C306.616 265.72 306.888 267.096 307.432 267.96C308.008 268.824 308.856 269.256 309.976 269.256Z" fill="black"/>
<path d="M89.96 158V143.3H92.36V158H89.96ZM98.92 158L94.28 151.58H97L101.78 158H98.92ZM91.58 152.92V150.9H95.38C95.9533 150.9 96.4467 150.787 96.86 150.56C97.2733 150.32 97.5867 149.993 97.8 149.58C98.0267 149.167 98.14 148.687 98.14 148.14C98.14 147.607 98.0267 147.133 97.8 146.72C97.5867 146.307 97.2733 145.98 96.86 145.74C96.4467 145.5 95.9533 145.38 95.38 145.38H91.58V143.3H95.06C96.18 143.3 97.1533 143.473 97.98 143.82C98.8067 144.153 99.4467 144.66 99.9 145.34C100.353 146.02 100.58 146.893 100.58 147.96V148.28C100.58 149.347 100.347 150.22 99.88 150.9C99.4267 151.58 98.7867 152.087 97.96 152.42C97.1467 152.753 96.18 152.92 95.06 152.92H91.58ZM107.824 158.36C106.891 158.36 106.077 158.2 105.384 157.88C104.691 157.56 104.124 157.14 103.684 156.62C103.244 156.087 102.911 155.493 102.684 154.84C102.471 154.173 102.364 153.493 102.364 152.8V152.42C102.364 151.713 102.471 151.033 102.684 150.38C102.911 149.713 103.244 149.12 103.684 148.6C104.124 148.067 104.677 147.647 105.344 147.34C106.024 147.02 106.811 146.86 107.704 146.86C108.864 146.86 109.831 147.113 110.604 147.62C111.377 148.127 111.957 148.787 112.344 149.6C112.731 150.4 112.924 151.267 112.924 152.2V153.14H103.364V151.56H111.344L110.704 152.36C110.704 151.64 110.591 151.02 110.364 150.5C110.137 149.967 109.804 149.56 109.364 149.28C108.924 148.987 108.371 148.84 107.704 148.84C107.011 148.84 106.431 149 105.964 149.32C105.497 149.64 105.151 150.08 104.924 150.64C104.697 151.2 104.584 151.86 104.584 152.62C104.584 153.34 104.697 153.987 104.924 154.56C105.151 155.12 105.504 155.567 105.984 155.9C106.464 156.22 107.077 156.38 107.824 156.38C108.571 156.38 109.184 156.22 109.664 155.9C110.144 155.567 110.437 155.18 110.544 154.74H112.724C112.577 155.473 112.277 156.113 111.824 156.66C111.384 157.207 110.824 157.627 110.144 157.92C109.464 158.213 108.691 158.36 107.824 158.36ZM116.99 158L113.47 147.22H115.91L119.31 158H116.99ZM117.65 158V156.1H120.27V158H117.65ZM118.65 158L121.61 147.22H123.89L120.83 158H118.65ZM130.1 158.36C129.167 158.36 128.354 158.2 127.66 157.88C126.967 157.56 126.4 157.14 125.96 156.62C125.52 156.087 125.187 155.493 124.96 154.84C124.747 154.173 124.64 153.493 124.64 152.8V152.42C124.64 151.713 124.747 151.033 124.96 150.38C125.187 149.713 125.52 149.12 125.96 148.6C126.4 148.067 126.954 147.647 127.62 147.34C128.3 147.02 129.087 146.86 129.98 146.86C131.14 146.86 132.107 147.113 132.88 147.62C133.654 148.127 134.234 148.787 134.62 149.6C135.007 150.4 135.2 151.267 135.2 152.2V153.14H125.64V151.56H133.62L132.98 152.36C132.98 151.64 132.867 151.02 132.64 150.5C132.414 149.967 132.08 149.56 131.64 149.28C131.2 148.987 130.647 148.84 129.98 148.84C129.287 148.84 128.707 149 128.24 149.32C127.774 149.64 127.427 150.08 127.2 150.64C126.974 151.2 126.86 151.86 126.86 152.62C126.86 153.34 126.974 153.987 127.2 154.56C127.427 155.12 127.78 155.567 128.26 155.9C128.74 156.22 129.354 156.38 130.1 156.38C130.847 156.38 131.46 156.22 131.94 155.9C132.42 155.567 132.714 155.18 132.82 154.74H135C134.854 155.473 134.554 156.113 134.1 156.66C133.66 157.207 133.1 157.627 132.42 157.92C131.74 158.213 130.967 158.36 130.1 158.36ZM137.125 158V147.22H138.985V151.84H138.765C138.765 150.773 138.905 149.873 139.185 149.14C139.478 148.407 139.918 147.853 140.505 147.48C141.091 147.093 141.818 146.9 142.685 146.9H142.785C144.118 146.9 145.111 147.32 145.765 148.16C146.418 149 146.745 150.227 146.745 151.84V158H144.405V151.52C144.405 150.773 144.191 150.173 143.765 149.72C143.338 149.253 142.751 149.02 142.005 149.02C141.245 149.02 140.631 149.26 140.165 149.74C139.698 150.207 139.465 150.833 139.465 151.62V158H137.125ZM153.096 158.32C151.829 158.32 150.856 157.913 150.176 157.1C149.496 156.273 149.156 155.06 149.156 153.46V147.22H151.496V153.78C151.496 154.527 151.702 155.12 152.116 155.56C152.529 155.987 153.089 156.2 153.796 156.2C154.516 156.2 155.102 155.973 155.556 155.52C156.022 155.053 156.256 154.42 156.256 153.62V147.22H158.596V158H156.736V153.4H156.976C156.976 154.48 156.829 155.387 156.536 156.12C156.256 156.84 155.836 157.387 155.276 157.76C154.729 158.133 154.036 158.32 153.196 158.32H153.096ZM166.172 158.36C165.238 158.36 164.425 158.2 163.732 157.88C163.038 157.56 162.472 157.14 162.032 156.62C161.592 156.087 161.258 155.493 161.032 154.84C160.818 154.173 160.712 153.493 160.712 152.8V152.42C160.712 151.713 160.818 151.033 161.032 150.38C161.258 149.713 161.592 149.12 162.032 148.6C162.472 148.067 163.025 147.647 163.692 147.34C164.372 147.02 165.158 146.86 166.052 146.86C167.212 146.86 168.178 147.113 168.952 147.62C169.725 148.127 170.305 148.787 170.692 149.6C171.078 150.4 171.272 151.267 171.272 152.2V153.14H161.712V151.56H169.692L169.052 152.36C169.052 151.64 168.938 151.02 168.712 150.5C168.485 149.967 168.152 149.56 167.712 149.28C167.272 148.987 166.718 148.84 166.052 148.84C165.358 148.84 164.778 149 164.312 149.32C163.845 149.64 163.498 150.08 163.272 150.64C163.045 151.2 162.932 151.86 162.932 152.62C162.932 153.34 163.045 153.987 163.272 154.56C163.498 155.12 163.852 155.567 164.332 155.9C164.812 156.22 165.425 156.38 166.172 156.38C166.918 156.38 167.532 156.22 168.012 155.9C168.492 155.567 168.785 155.18 168.892 154.74H171.072C170.925 155.473 170.625 156.113 170.172 156.66C169.732 157.207 169.172 157.627 168.492 157.92C167.812 158.213 167.038 158.36 166.172 158.36ZM183.929 158.36C182.729 158.36 181.663 158.167 180.729 157.78C179.796 157.38 179.003 156.833 178.349 156.14C177.696 155.447 177.196 154.64 176.849 153.72C176.516 152.8 176.349 151.827 176.349 150.8V150.36C176.349 149.44 176.509 148.54 176.829 147.66C177.149 146.78 177.616 145.987 178.229 145.28C178.856 144.573 179.616 144.013 180.509 143.6C181.416 143.187 182.449 142.98 183.609 142.98C184.849 142.98 185.956 143.22 186.929 143.7C187.903 144.167 188.683 144.82 189.269 145.66C189.856 146.487 190.196 147.447 190.289 148.54H187.849C187.769 147.82 187.523 147.213 187.109 146.72C186.709 146.227 186.203 145.853 185.589 145.6C184.989 145.333 184.329 145.2 183.609 145.2C182.889 145.2 182.229 145.333 181.629 145.6C181.043 145.853 180.536 146.22 180.109 146.7C179.683 147.167 179.356 147.733 179.129 148.4C178.903 149.053 178.789 149.787 178.789 150.6C178.789 151.507 178.909 152.307 179.149 153C179.403 153.693 179.756 154.28 180.209 154.76C180.663 155.227 181.203 155.587 181.829 155.84C182.469 156.08 183.169 156.2 183.929 156.2C184.983 156.2 185.903 155.987 186.689 155.56C187.489 155.12 188.089 154.553 188.489 153.86L187.869 156.2V152.14H190.109V155.5C189.456 156.407 188.603 157.113 187.549 157.62C186.509 158.113 185.303 158.36 183.929 158.36ZM183.429 152.62V150.74H191.329V152.62H183.429ZM193.07 158V147.22H194.93V151.72H194.85C194.85 150.173 195.19 149.02 195.87 148.26C196.55 147.487 197.557 147.1 198.89 147.1H199.27V149.16H198.55C197.537 149.16 196.757 149.433 196.21 149.98C195.677 150.513 195.41 151.28 195.41 152.28V158H193.07ZM205.714 158.36C204.767 158.36 203.934 158.207 203.214 157.9C202.494 157.58 201.887 157.16 201.394 156.64C200.9 156.12 200.527 155.533 200.274 154.88C200.02 154.213 199.894 153.527 199.894 152.82V152.42C199.894 151.713 200.02 151.027 200.274 150.36C200.54 149.693 200.92 149.1 201.414 148.58C201.92 148.047 202.534 147.627 203.254 147.32C203.974 147.013 204.794 146.86 205.714 146.86C206.634 146.86 207.447 147.013 208.154 147.32C208.874 147.627 209.487 148.047 209.994 148.58C210.5 149.1 210.88 149.693 211.134 150.36C211.4 151.027 211.534 151.713 211.534 152.42V152.82C211.534 153.527 211.407 154.213 211.154 154.88C210.9 155.533 210.527 156.12 210.034 156.64C209.54 157.16 208.934 157.58 208.214 157.9C207.494 158.207 206.66 158.36 205.714 158.36ZM205.714 156.32C206.447 156.32 207.074 156.16 207.594 155.84C208.114 155.507 208.507 155.06 208.774 154.5C209.054 153.94 209.194 153.313 209.194 152.62C209.194 151.913 209.054 151.28 208.774 150.72C208.494 150.16 208.094 149.72 207.574 149.4C207.054 149.067 206.434 148.9 205.714 148.9C204.994 148.9 204.374 149.067 203.854 149.4C203.334 149.72 202.934 150.16 202.654 150.72C202.374 151.28 202.234 151.913 202.234 152.62C202.234 153.313 202.367 153.94 202.634 154.5C202.914 155.06 203.314 155.507 203.834 155.84C204.354 156.16 204.98 156.32 205.714 156.32ZM216.813 158L218.913 147.58H221.813L224.273 158H222.353L219.873 147.64H220.773L218.613 158H216.813ZM215.893 158V156.1H218.113V158H215.893ZM215.133 158L212.133 147.22H214.413L217.273 158H215.133ZM222.893 158V156.1H225.113V158H222.893ZM223.793 158L226.313 147.22H228.453L225.813 158H223.793ZM234.87 158.12C233.976 158.12 233.223 158 232.61 157.76C231.996 157.52 231.53 157.107 231.21 156.52C230.903 155.933 230.75 155.14 230.75 154.14V144.08H232.97V154.34C232.97 154.9 233.116 155.333 233.41 155.64C233.716 155.933 234.143 156.08 234.69 156.08H236.49V158.12H234.87ZM228.97 148.96V147.22H236.49V148.96H228.97ZM238.424 158V143.4H240.764V152.02H240.284C240.284 150.953 240.417 150.04 240.684 149.28C240.964 148.507 241.384 147.92 241.944 147.52C242.517 147.107 243.237 146.9 244.104 146.9H244.204C245.471 146.9 246.424 147.327 247.064 148.18C247.717 149.033 248.044 150.26 248.044 151.86V158H245.704V151.52C245.704 150.747 245.477 150.14 245.024 149.7C244.584 149.247 244.011 149.02 243.304 149.02C242.544 149.02 241.931 149.273 241.464 149.78C240.997 150.287 240.764 150.953 240.764 151.78V158H238.424Z" fill="black"/>
<g filter="url(#filter1_f_1_167)">
<rect x="51" y="359" width="409" height="314" fill="#222222" fill-opacity="0.05"/>
</g>
<rect x="51" y="349" width="425" height="314" fill="white"/>
<g filter="url(#filter2_f_1_167)">
<rect x="476" y="252" width="409" height="314" fill="#222222" fill-opacity="0.05"/>
</g>
<rect x="493" y="252" width="376" height="314" fill="white"/>
<rect x="91" y="189" width="332" height="1" fill="#D9D9D9"/>
<rect x="404" y="124" width="6" height="4.79291" fill="#D9D9D9"/>
<rect x="414" y="124" width="6" height="4.79291" fill="#D9D9D9"/>
<rect x="404" y="131.104" width="6" height="4.79291" fill="#D9D9D9"/>
<rect x="414" y="131.104" width="6" height="4.79291" fill="#D9D9D9"/>
<rect x="404" y="138.207" width="6" height="4.79291" fill="#D9D9D9"/>
<rect x="414" y="138.207" width="6" height="4.79291" fill="#D9D9D9"/>
<circle cx="123" cy="254" r="35" fill="#4AFCBE"/>
<circle cx="123" cy="254" r="13" fill="#222222"/>
<path d="M91.12 520V513.28C91.12 511.808 91.344 510.528 91.792 509.44C92.272 508.352 93.04 507.392 94.096 506.56C95.184 505.696 96.608 504.88 98.368 504.112L104.32 501.472C105.792 500.8 106.912 499.984 107.68 499.024C108.48 498.032 108.88 496.768 108.88 495.232C108.88 493.536 108.368 492.192 107.344 491.2C106.352 490.176 104.928 489.664 103.072 489.664C101.216 489.664 99.776 490.176 98.752 491.2C97.76 492.224 97.264 493.648 97.264 495.472H90.688C90.688 493.296 91.152 491.344 92.08 489.616C93.008 487.856 94.384 486.48 96.208 485.488C98.032 484.464 100.32 483.952 103.072 483.952C105.824 483.952 108.112 484.448 109.936 485.44C111.76 486.432 113.136 487.76 114.064 489.424C114.992 491.056 115.456 492.88 115.456 494.896V495.52C115.456 498.144 114.72 500.336 113.248 502.096C111.776 503.824 109.616 505.328 106.768 506.608L100.816 509.248C99.696 509.728 98.912 510.24 98.464 510.784C98.016 511.296 97.792 512 97.792 512.896V515.968L96.16 514.192H115.6V520H91.12ZM134.846 520.912C132.094 520.912 129.758 520.464 127.838 519.568C125.918 518.64 124.35 517.392 123.134 515.824C121.918 514.224 121.022 512.4 120.446 510.352C119.902 508.272 119.63 506.096 119.63 503.824V501.136C119.63 497.904 120.174 494.992 121.262 492.4C122.35 489.808 124.014 487.76 126.254 486.256C128.494 484.72 131.358 483.952 134.846 483.952C138.302 483.952 141.15 484.72 143.39 486.256C145.63 487.76 147.278 489.808 148.334 492.4C149.422 494.992 149.966 497.904 149.966 501.136V503.824C149.966 506.096 149.678 508.272 149.102 510.352C148.558 512.4 147.678 514.224 146.462 515.824C145.278 517.392 143.726 518.64 141.806 519.568C139.886 520.464 137.566 520.912 134.846 520.912ZM134.846 514.672C137.694 514.672 139.79 513.696 141.134 511.744C142.478 509.76 143.15 506.688 143.15 502.528C143.15 498.112 142.462 494.96 141.086 493.072C139.71 491.152 137.63 490.192 134.846 490.192C132.03 490.192 129.918 491.152 128.51 493.072C127.134 494.96 126.446 498.08 126.446 502.432C126.446 506.624 127.134 509.712 128.51 511.696C129.886 513.68 131.998 514.672 134.846 514.672ZM152.311 520L160.807 506.08L160.663 507.184L152.647 493.936H159.895L165.127 503.104H165.847L170.791 493.936H177.607L170.023 507.136L170.167 506.176L179.143 520H171.895L165.703 510.16H164.983L159.127 520H152.311Z" fill="black"/>
<path d="M89.96 410V395.3H92.36V410H89.96ZM98.92 410L94.28 403.58H97L101.78 410H98.92ZM91.58 404.92V402.9H95.38C95.9533 402.9 96.4467 402.787 96.86 402.56C97.2733 402.32 97.5867 401.993 97.8 401.58C98.0267 401.167 98.14 400.687 98.14 400.14C98.14 399.607 98.0267 399.133 97.8 398.72C97.5867 398.307 97.2733 397.98 96.86 397.74C96.4467 397.5 95.9533 397.38 95.38 397.38H91.58V395.3H95.06C96.18 395.3 97.1533 395.473 97.98 395.82C98.8067 396.153 99.4467 396.66 99.9 397.34C100.353 398.02 100.58 398.893 100.58 399.96V400.28C100.58 401.347 100.347 402.22 99.88 402.9C99.4267 403.58 98.7867 404.087 97.96 404.42C97.1467 404.753 96.18 404.92 95.06 404.92H91.58ZM107.824 410.36C106.891 410.36 106.077 410.2 105.384 409.88C104.691 409.56 104.124 409.14 103.684 408.62C103.244 408.087 102.911 407.493 102.684 406.84C102.471 406.173 102.364 405.493 102.364 404.8V404.42C102.364 403.713 102.471 403.033 102.684 402.38C102.911 401.713 103.244 401.12 103.684 400.6C104.124 400.067 104.677 399.647 105.344 399.34C106.024 399.02 106.811 398.86 107.704 398.86C108.864 398.86 109.831 399.113 110.604 399.62C111.377 400.127 111.957 400.787 112.344 401.6C112.731 402.4 112.924 403.267 112.924 404.2V405.14H103.364V403.56H111.344L110.704 404.36C110.704 403.64 110.591 403.02 110.364 402.5C110.137 401.967 109.804 401.56 109.364 401.28C108.924 400.987 108.371 400.84 107.704 400.84C107.011 400.84 106.431 401 105.964 401.32C105.497 401.64 105.151 402.08 104.924 402.64C104.697 403.2 104.584 403.86 104.584 404.62C104.584 405.34 104.697 405.987 104.924 406.56C105.151 407.12 105.504 407.567 105.984 407.9C106.464 408.22 107.077 408.38 107.824 408.38C108.571 408.38 109.184 408.22 109.664 407.9C110.144 407.567 110.437 407.18 110.544 406.74H112.724C112.577 407.473 112.277 408.113 111.824 408.66C111.384 409.207 110.824 409.627 110.144 409.92C109.464 410.213 108.691 410.36 107.824 410.36ZM119.328 410.36C118.555 410.36 117.848 410.22 117.208 409.94C116.581 409.66 116.028 409.267 115.548 408.76C115.081 408.253 114.721 407.667 114.468 407C114.215 406.333 114.088 405.607 114.088 404.82V404.44C114.088 403.667 114.208 402.947 114.448 402.28C114.701 401.6 115.055 401.007 115.508 400.5C115.961 399.993 116.501 399.6 117.128 399.32C117.768 399.027 118.475 398.88 119.248 398.88C120.075 398.88 120.815 399.06 121.468 399.42C122.135 399.767 122.668 400.307 123.068 401.04C123.481 401.76 123.708 402.68 123.748 403.8L122.948 402.7V395.4H125.288V410H123.428V405.32H123.948C123.908 406.48 123.668 407.433 123.228 408.18C122.801 408.927 122.248 409.48 121.568 409.84C120.888 410.187 120.141 410.36 119.328 410.36ZM119.768 408.34C120.368 408.34 120.908 408.207 121.388 407.94C121.881 407.673 122.275 407.287 122.568 406.78C122.875 406.26 123.028 405.653 123.028 404.96V404.1C123.028 403.42 122.875 402.84 122.568 402.36C122.261 401.88 121.861 401.513 121.368 401.26C120.875 401.007 120.335 400.88 119.748 400.88C119.095 400.88 118.515 401.04 118.008 401.36C117.515 401.667 117.128 402.1 116.848 402.66C116.568 403.22 116.428 403.873 116.428 404.62C116.428 405.38 116.568 406.04 116.848 406.6C117.141 407.16 117.541 407.593 118.048 407.9C118.555 408.193 119.128 408.34 119.768 408.34ZM131.835 410.32C130.568 410.32 129.595 409.913 128.915 409.1C128.235 408.273 127.895 407.06 127.895 405.46V399.22H130.235V405.78C130.235 406.527 130.442 407.12 130.855 407.56C131.268 407.987 131.828 408.2 132.535 408.2C133.255 408.2 133.842 407.973 134.295 407.52C134.762 407.053 134.995 406.42 134.995 405.62V399.22H137.335V410H135.475V405.4H135.715C135.715 406.48 135.568 407.387 135.275 408.12C134.995 408.84 134.575 409.387 134.015 409.76C133.468 410.133 132.775 410.32 131.935 410.32H131.835ZM144.891 410.36C143.971 410.36 143.164 410.207 142.471 409.9C141.791 409.58 141.224 409.153 140.771 408.62C140.331 408.073 139.997 407.473 139.771 406.82C139.557 406.153 139.451 405.48 139.451 404.8V404.44C139.451 403.733 139.564 403.053 139.791 402.4C140.017 401.733 140.357 401.133 140.811 400.6C141.264 400.067 141.824 399.647 142.491 399.34C143.171 399.02 143.964 398.86 144.871 398.86C145.791 398.86 146.611 399.033 147.331 399.38C148.064 399.727 148.651 400.22 149.091 400.86C149.531 401.487 149.777 402.22 149.831 403.06H147.571C147.491 402.46 147.217 401.953 146.751 401.54C146.297 401.127 145.671 400.92 144.871 400.92C144.177 400.92 143.604 401.08 143.151 401.4C142.697 401.72 142.357 402.16 142.131 402.72C141.904 403.267 141.791 403.9 141.791 404.62C141.791 405.313 141.897 405.94 142.111 406.5C142.337 407.06 142.677 407.5 143.131 407.82C143.597 408.14 144.184 408.3 144.891 408.3C145.437 408.3 145.904 408.207 146.291 408.02C146.691 407.82 147.011 407.56 147.251 407.24C147.491 406.907 147.631 406.527 147.671 406.1H149.951C149.911 406.967 149.664 407.72 149.211 408.36C148.757 408.987 148.157 409.48 147.411 409.84C146.664 410.187 145.824 410.36 144.891 410.36ZM156.199 410.12C155.305 410.12 154.552 410 153.939 409.76C153.325 409.52 152.859 409.107 152.539 408.52C152.232 407.933 152.079 407.14 152.079 406.14V396.08H154.299V406.34C154.299 406.9 154.445 407.333 154.739 407.64C155.045 407.933 155.472 408.08 156.019 408.08H157.819V410.12H156.199ZM150.299 400.96V399.22H157.819V400.96H150.299ZM160.273 410V399.22H162.613V410H160.273ZM158.693 401.02V399.22H162.613V401.02H158.693ZM161.033 397.72C160.553 397.72 160.193 397.593 159.953 397.34C159.726 397.087 159.613 396.76 159.613 396.36C159.613 395.973 159.726 395.653 159.953 395.4C160.193 395.133 160.553 395 161.033 395C161.526 395 161.886 395.133 162.113 395.4C162.353 395.653 162.473 395.973 162.473 396.36C162.473 396.76 162.353 397.087 162.113 397.34C161.886 397.593 161.526 397.72 161.033 397.72ZM170.56 410.36C169.614 410.36 168.78 410.207 168.06 409.9C167.34 409.58 166.734 409.16 166.24 408.64C165.747 408.12 165.374 407.533 165.12 406.88C164.867 406.213 164.74 405.527 164.74 404.82V404.42C164.74 403.713 164.867 403.027 165.12 402.36C165.387 401.693 165.767 401.1 166.26 400.58C166.767 400.047 167.38 399.627 168.1 399.32C168.82 399.013 169.64 398.86 170.56 398.86C171.48 398.86 172.294 399.013 173 399.32C173.72 399.627 174.334 400.047 174.84 400.58C175.347 401.1 175.727 401.693 175.98 402.36C176.247 403.027 176.38 403.713 176.38 404.42V404.82C176.38 405.527 176.254 406.213 176 406.88C175.747 407.533 175.374 408.12 174.88 408.64C174.387 409.16 173.78 409.58 173.06 409.9C172.34 410.207 171.507 410.36 170.56 410.36ZM170.56 408.32C171.294 408.32 171.92 408.16 172.44 407.84C172.96 407.507 173.354 407.06 173.62 406.5C173.9 405.94 174.04 405.313 174.04 404.62C174.04 403.913 173.9 403.28 173.62 402.72C173.34 402.16 172.94 401.72 172.42 401.4C171.9 401.067 171.28 400.9 170.56 400.9C169.84 400.9 169.22 401.067 168.7 401.4C168.18 401.72 167.78 402.16 167.5 402.72C167.22 403.28 167.08 403.913 167.08 404.62C167.08 405.313 167.214 405.94 167.48 406.5C167.76 407.06 168.16 407.507 168.68 407.84C169.2 408.16 169.827 408.32 170.56 408.32ZM178.455 410V399.22H180.315V403.84H180.095C180.095 402.773 180.235 401.873 180.515 401.14C180.808 400.407 181.248 399.853 181.835 399.48C182.422 399.093 183.148 398.9 184.015 398.9H184.115C185.448 398.9 186.442 399.32 187.095 400.16C187.748 401 188.075 402.227 188.075 403.84V410H185.735V403.52C185.735 402.773 185.522 402.173 185.095 401.72C184.668 401.253 184.082 401.02 183.335 401.02C182.575 401.02 181.962 401.26 181.495 401.74C181.028 402.207 180.795 402.833 180.795 403.62V410H178.455ZM195.08 410V399.22H197.42V410H195.08ZM193.5 401.02V399.22H197.42V401.02H193.5ZM195.84 397.72C195.36 397.72 195 397.593 194.76 397.34C194.533 397.087 194.42 396.76 194.42 396.36C194.42 395.973 194.533 395.653 194.76 395.4C195 395.133 195.36 395 195.84 395C196.333 395 196.693 395.133 196.92 395.4C197.16 395.653 197.28 395.973 197.28 396.36C197.28 396.76 197.16 397.087 196.92 397.34C196.693 397.593 196.333 397.72 195.84 397.72ZM200.308 410V399.22H202.168V403.84H201.948C201.948 402.773 202.088 401.873 202.368 401.14C202.661 400.407 203.101 399.853 203.688 399.48C204.274 399.093 205.001 398.9 205.868 398.9H205.968C207.301 398.9 208.294 399.32 208.948 400.16C209.601 401 209.928 402.227 209.928 403.84V410H207.588V403.52C207.588 402.773 207.374 402.173 206.948 401.72C206.521 401.253 205.934 401.02 205.188 401.02C204.428 401.02 203.814 401.26 203.348 401.74C202.881 402.207 202.648 402.833 202.648 403.62V410H200.308ZM216.652 410V395.4H219.052V410H216.652ZM218.652 410V407.86H225.152V410H218.652ZM231.751 410.36C230.804 410.36 229.971 410.207 229.251 409.9C228.531 409.58 227.924 409.16 227.431 408.64C226.938 408.12 226.564 407.533 226.311 406.88C226.058 406.213 225.931 405.527 225.931 404.82V404.42C225.931 403.713 226.058 403.027 226.311 402.36C226.578 401.693 226.958 401.1 227.451 400.58C227.958 400.047 228.571 399.627 229.291 399.32C230.011 399.013 230.831 398.86 231.751 398.86C232.671 398.86 233.484 399.013 234.191 399.32C234.911 399.627 235.524 400.047 236.031 400.58C236.538 401.1 236.918 401.693 237.171 402.36C237.438 403.027 237.571 403.713 237.571 404.42V404.82C237.571 405.527 237.444 406.213 237.191 406.88C236.938 407.533 236.564 408.12 236.071 408.64C235.578 409.16 234.971 409.58 234.251 409.9C233.531 410.207 232.698 410.36 231.751 410.36ZM231.751 408.32C232.484 408.32 233.111 408.16 233.631 407.84C234.151 407.507 234.544 407.06 234.811 406.5C235.091 405.94 235.231 405.313 235.231 404.62C235.231 403.913 235.091 403.28 234.811 402.72C234.531 402.16 234.131 401.72 233.611 401.4C233.091 401.067 232.471 400.9 231.751 400.9C231.031 400.9 230.411 401.067 229.891 401.4C229.371 401.72 228.971 402.16 228.691 402.72C228.411 403.28 228.271 403.913 228.271 404.62C228.271 405.313 228.404 405.94 228.671 406.5C228.951 407.06 229.351 407.507 229.871 407.84C230.391 408.16 231.018 408.32 231.751 408.32ZM243.366 410.32C241.912 410.32 240.779 410.013 239.966 409.4C239.166 408.787 238.746 407.94 238.706 406.86H240.866C240.892 407.26 241.099 407.627 241.486 407.96C241.872 408.293 242.506 408.46 243.386 408.46C244.132 408.46 244.719 408.313 245.146 408.02C245.572 407.727 245.786 407.36 245.786 406.92C245.786 406.52 245.626 406.207 245.306 405.98C244.999 405.74 244.472 405.58 243.726 405.5L242.666 405.4C241.559 405.28 240.679 404.953 240.026 404.42C239.386 403.887 239.066 403.167 239.066 402.26C239.066 401.54 239.246 400.933 239.606 400.44C239.966 399.947 240.459 399.567 241.086 399.3C241.726 399.033 242.459 398.9 243.286 398.9C244.566 398.9 245.599 399.187 246.386 399.76C247.172 400.32 247.579 401.147 247.606 402.24H245.466C245.439 401.827 245.246 401.48 244.886 401.2C244.526 400.92 243.992 400.78 243.286 400.78C242.619 400.78 242.106 400.913 241.746 401.18C241.399 401.447 241.226 401.787 241.226 402.2C241.226 402.573 241.359 402.867 241.626 403.08C241.892 403.293 242.326 403.433 242.926 403.5L243.986 403.6C245.199 403.733 246.159 404.073 246.866 404.62C247.586 405.153 247.946 405.9 247.946 406.86C247.946 407.553 247.752 408.16 247.366 408.68C246.979 409.2 246.439 409.607 245.746 409.9C245.066 410.18 244.272 410.32 243.366 410.32ZM254.325 410.12C253.432 410.12 252.678 410 252.065 409.76C251.452 409.52 250.985 409.107 250.665 408.52C250.358 407.933 250.205 407.14 250.205 406.14V396.08H252.425V406.34C252.425 406.9 252.572 407.333 252.865 407.64C253.172 407.933 253.598 408.08 254.145 408.08H255.945V410.12H254.325ZM248.425 400.96V399.22H255.945V400.96H248.425ZM266.813 410.36C265.56 410.36 264.493 410.16 263.613 409.76C262.746 409.347 262.086 408.787 261.633 408.08C261.18 407.36 260.953 406.547 260.953 405.64H263.313C263.313 406.053 263.426 406.46 263.653 406.86C263.88 407.26 264.246 407.593 264.753 407.86C265.26 408.113 265.946 408.24 266.813 408.24C267.6 408.24 268.246 408.127 268.753 407.9C269.273 407.673 269.653 407.373 269.893 407C270.146 406.627 270.273 406.213 270.273 405.76C270.273 405.2 270.033 404.747 269.553 404.4C269.073 404.04 268.353 403.82 267.393 403.74L265.933 403.6C264.586 403.493 263.513 403.08 262.713 402.36C261.913 401.627 261.513 400.667 261.513 399.48C261.513 398.573 261.726 397.787 262.153 397.12C262.593 396.453 263.206 395.933 263.993 395.56C264.78 395.173 265.693 394.98 266.733 394.98C267.8 394.98 268.726 395.173 269.513 395.56C270.3 395.933 270.906 396.467 271.333 397.16C271.773 397.84 271.993 398.653 271.993 399.6H269.633C269.633 399.173 269.526 398.773 269.313 398.4C269.113 398.013 268.8 397.7 268.373 397.46C267.946 397.22 267.4 397.1 266.733 397.1C266.093 397.1 265.56 397.213 265.133 397.44C264.72 397.667 264.406 397.96 264.193 398.32C263.98 398.68 263.873 399.067 263.873 399.48C263.873 399.973 264.06 400.413 264.433 400.8C264.806 401.173 265.38 401.393 266.153 401.46L267.593 401.58C268.62 401.66 269.506 401.88 270.253 402.24C271.013 402.587 271.6 403.053 272.013 403.64C272.44 404.227 272.653 404.933 272.653 405.76C272.653 406.667 272.406 407.467 271.913 408.16C271.433 408.853 270.753 409.393 269.873 409.78C269.006 410.167 267.986 410.36 266.813 410.36ZM281.246 410V406.78H280.866V403.14C280.866 402.473 280.692 401.967 280.346 401.62C279.999 401.273 279.486 401.1 278.806 401.1C278.432 401.1 278.019 401.107 277.566 401.12C277.112 401.133 276.666 401.153 276.226 401.18C275.799 401.193 275.419 401.213 275.086 401.24V399.22C275.379 399.193 275.699 399.173 276.046 399.16C276.406 399.133 276.772 399.113 277.146 399.1C277.532 399.087 277.899 399.08 278.246 399.08C279.339 399.08 280.246 399.22 280.966 399.5C281.686 399.78 282.219 400.227 282.566 400.84C282.926 401.44 283.106 402.247 283.106 403.26V410H281.246ZM277.746 410.28C276.959 410.28 276.272 410.147 275.686 409.88C275.099 409.6 274.646 409.2 274.326 408.68C274.006 408.147 273.846 407.513 273.846 406.78C273.846 406.007 274.026 405.367 274.386 404.86C274.759 404.353 275.286 403.973 275.966 403.72C276.646 403.467 277.459 403.34 278.406 403.34H281.106V404.88H278.346C277.639 404.88 277.099 405.053 276.726 405.4C276.352 405.733 276.166 406.173 276.166 406.72C276.166 407.267 276.352 407.707 276.726 408.04C277.099 408.36 277.639 408.52 278.346 408.52C278.759 408.52 279.152 408.447 279.526 408.3C279.899 408.14 280.206 407.88 280.446 407.52C280.699 407.16 280.839 406.653 280.866 406L281.466 406.78C281.399 407.54 281.212 408.18 280.906 408.7C280.612 409.207 280.199 409.6 279.666 409.88C279.146 410.147 278.506 410.28 277.746 410.28ZM285.887 410V395.4H288.247V410H285.887ZM284.467 397.2V395.4H288.247V397.2H284.467ZM295.785 410.36C294.852 410.36 294.038 410.2 293.345 409.88C292.652 409.56 292.085 409.14 291.645 408.62C291.205 408.087 290.872 407.493 290.645 406.84C290.432 406.173 290.325 405.493 290.325 404.8V404.42C290.325 403.713 290.432 403.033 290.645 402.38C290.872 401.713 291.205 401.12 291.645 400.6C292.085 400.067 292.638 399.647 293.305 399.34C293.985 399.02 294.772 398.86 295.665 398.86C296.825 398.86 297.792 399.113 298.565 399.62C299.338 400.127 299.918 400.787 300.305 401.6C300.692 402.4 300.885 403.267 300.885 404.2V405.14H291.325V403.56H299.305L298.665 404.36C298.665 403.64 298.552 403.02 298.325 402.5C298.098 401.967 297.765 401.56 297.325 401.28C296.885 400.987 296.332 400.84 295.665 400.84C294.972 400.84 294.392 401 293.925 401.32C293.458 401.64 293.112 402.08 292.885 402.64C292.658 403.2 292.545 403.86 292.545 404.62C292.545 405.34 292.658 405.987 292.885 406.56C293.112 407.12 293.465 407.567 293.945 407.9C294.425 408.22 295.038 408.38 295.785 408.38C296.532 408.38 297.145 408.22 297.625 407.9C298.105 407.567 298.398 407.18 298.505 406.74H300.685C300.538 407.473 300.238 408.113 299.785 408.66C299.345 409.207 298.785 409.627 298.105 409.92C297.425 410.213 296.652 410.36 295.785 410.36ZM306.529 410.32C305.076 410.32 303.942 410.013 303.129 409.4C302.329 408.787 301.909 407.94 301.869 406.86H304.029C304.056 407.26 304.262 407.627 304.649 407.96C305.036 408.293 305.669 408.46 306.549 408.46C307.296 408.46 307.882 408.313 308.309 408.02C308.736 407.727 308.949 407.36 308.949 406.92C308.949 406.52 308.789 406.207 308.469 405.98C308.162 405.74 307.636 405.58 306.889 405.5L305.829 405.4C304.722 405.28 303.842 404.953 303.189 404.42C302.549 403.887 302.229 403.167 302.229 402.26C302.229 401.54 302.409 400.933 302.769 400.44C303.129 399.947 303.622 399.567 304.249 399.3C304.889 399.033 305.622 398.9 306.449 398.9C307.729 398.9 308.762 399.187 309.549 399.76C310.336 400.32 310.742 401.147 310.769 402.24H308.629C308.602 401.827 308.409 401.48 308.049 401.2C307.689 400.92 307.156 400.78 306.449 400.78C305.782 400.78 305.269 400.913 304.909 401.18C304.562 401.447 304.389 401.787 304.389 402.2C304.389 402.573 304.522 402.867 304.789 403.08C305.056 403.293 305.489 403.433 306.089 403.5L307.149 403.6C308.362 403.733 309.322 404.073 310.029 404.62C310.749 405.153 311.109 405.9 311.109 406.86C311.109 407.553 310.916 408.16 310.529 408.68C310.142 409.2 309.602 409.607 308.909 409.9C308.229 410.18 307.436 410.32 306.529 410.32ZM325.882 410L320.022 403.72C319.409 403.053 318.929 402.48 318.582 402C318.235 401.507 317.989 401.04 317.842 400.6C317.695 400.16 317.622 399.68 317.622 399.16C317.622 398.307 317.789 397.593 318.122 397.02C318.455 396.433 318.982 395.987 319.702 395.68C320.435 395.373 321.375 395.22 322.522 395.22C322.975 395.22 323.469 395.247 324.002 395.3C324.535 395.34 325.009 395.387 325.422 395.44V397.44C325.155 397.413 324.815 397.38 324.402 397.34C323.989 397.3 323.582 397.273 323.182 397.26C322.782 397.233 322.455 397.22 322.202 397.22C321.309 397.22 320.689 397.393 320.342 397.74C319.995 398.087 319.822 398.587 319.822 399.24C319.822 399.787 319.949 400.293 320.202 400.76C320.469 401.227 320.882 401.76 321.442 402.36L328.582 410H325.882ZM320.982 410.38C319.942 410.38 319.029 410.18 318.242 409.78C317.455 409.38 316.842 408.84 316.402 408.16C315.975 407.467 315.762 406.7 315.762 405.86V405.58C315.762 404.607 316.029 403.747 316.562 403C317.109 402.253 317.795 401.667 318.622 401.24L319.722 402.7C319.215 402.967 318.795 403.367 318.462 403.9C318.142 404.42 317.982 405.007 317.982 405.66C317.982 406.233 318.109 406.727 318.362 407.14C318.629 407.553 318.995 407.867 319.462 408.08C319.929 408.293 320.455 408.4 321.042 408.4C321.922 408.4 322.695 408.16 323.362 407.68C324.042 407.187 324.569 406.447 324.942 405.46C325.315 404.473 325.502 403.227 325.502 401.72H327.582C327.582 403.08 327.429 404.293 327.122 405.36C326.815 406.427 326.369 407.333 325.782 408.08C325.209 408.827 324.515 409.4 323.702 409.8C322.889 410.187 321.982 410.38 320.982 410.38ZM323.322 402.04V400.24H328.722V402.04H323.322ZM337.279 410V397.12H339.679V410H337.279ZM332.959 397.52V395.4H344.019V397.52H332.959ZM345.61 410V395.4H347.95V404.02H347.47C347.47 402.953 347.603 402.04 347.87 401.28C348.15 400.507 348.57 399.92 349.13 399.52C349.703 399.107 350.423 398.9 351.29 398.9H351.39C352.657 398.9 353.61 399.327 354.25 400.18C354.903 401.033 355.23 402.26 355.23 403.86V410H352.89V403.52C352.89 402.747 352.663 402.14 352.21 401.7C351.77 401.247 351.197 401.02 350.49 401.02C349.73 401.02 349.117 401.273 348.65 401.78C348.183 402.287 347.95 402.953 347.95 403.78V410H345.61ZM362.581 410.36C361.648 410.36 360.834 410.2 360.141 409.88C359.448 409.56 358.881 409.14 358.441 408.62C358.001 408.087 357.668 407.493 357.441 406.84C357.228 406.173 357.121 405.493 357.121 404.8V404.42C357.121 403.713 357.228 403.033 357.441 402.38C357.668 401.713 358.001 401.12 358.441 400.6C358.881 400.067 359.434 399.647 360.101 399.34C360.781 399.02 361.568 398.86 362.461 398.86C363.621 398.86 364.588 399.113 365.361 399.62C366.134 400.127 366.714 400.787 367.101 401.6C367.488 402.4 367.681 403.267 367.681 404.2V405.14H358.121V403.56H366.101L365.461 404.36C365.461 403.64 365.348 403.02 365.121 402.5C364.894 401.967 364.561 401.56 364.121 401.28C363.681 400.987 363.128 400.84 362.461 400.84C361.768 400.84 361.188 401 360.721 401.32C360.254 401.64 359.908 402.08 359.681 402.64C359.454 403.2 359.341 403.86 359.341 404.62C359.341 405.34 359.454 405.987 359.681 406.56C359.908 407.12 360.261 407.567 360.741 407.9C361.221 408.22 361.834 408.38 362.581 408.38C363.328 408.38 363.941 408.22 364.421 407.9C364.901 407.567 365.194 407.18 365.301 406.74H367.481C367.334 407.473 367.034 408.113 366.581 408.66C366.141 409.207 365.581 409.627 364.901 409.92C364.221 410.213 363.448 410.36 362.581 410.36ZM369.865 410V398.84C369.865 397.627 370.192 396.733 370.845 396.16C371.512 395.573 372.478 395.28 373.745 395.28H375.105V397.14H373.485C373.045 397.14 372.698 397.267 372.445 397.52C372.205 397.773 372.085 398.12 372.085 398.56V410H369.865ZM368.445 401.12V399.38H375.285V401.12H368.445ZM381.199 410.12C380.305 410.12 379.552 410 378.939 409.76C378.325 409.52 377.859 409.107 377.539 408.52C377.232 407.933 377.079 407.14 377.079 406.14V396.08H379.299V406.34C379.299 406.9 379.445 407.333 379.739 407.64C380.045 407.933 380.472 408.08 381.019 408.08H382.819V410.12H381.199ZM375.299 400.96V399.22H382.819V400.96H375.299Z" fill="black"/>
<path d="M526.96 303V288.3H529.36V303H526.96ZM535.92 303L531.28 296.58H534L538.78 303H535.92ZM528.58 297.92V295.9H532.38C532.953 295.9 533.447 295.787 533.86 295.56C534.273 295.32 534.587 294.993 534.8 294.58C535.027 294.167 535.14 293.687 535.14 293.14C535.14 292.607 535.027 292.133 534.8 291.72C534.587 291.307 534.273 290.98 533.86 290.74C533.447 290.5 532.953 290.38 532.38 290.38H528.58V288.3H532.06C533.18 288.3 534.153 288.473 534.98 288.82C535.807 289.153 536.447 289.66 536.9 290.34C537.353 291.02 537.58 291.893 537.58 292.96V293.28C537.58 294.347 537.347 295.22 536.88 295.9C536.427 296.58 535.787 297.087 534.96 297.42C534.147 297.753 533.18 297.92 532.06 297.92H528.58ZM544.824 303.36C543.891 303.36 543.077 303.2 542.384 302.88C541.691 302.56 541.124 302.14 540.684 301.62C540.244 301.087 539.911 300.493 539.684 299.84C539.471 299.173 539.364 298.493 539.364 297.8V297.42C539.364 296.713 539.471 296.033 539.684 295.38C539.911 294.713 540.244 294.12 540.684 293.6C541.124 293.067 541.677 292.647 542.344 292.34C543.024 292.02 543.811 291.86 544.704 291.86C545.864 291.86 546.831 292.113 547.604 292.62C548.377 293.127 548.957 293.787 549.344 294.6C549.731 295.4 549.924 296.267 549.924 297.2V298.14H540.364V296.56H548.344L547.704 297.36C547.704 296.64 547.591 296.02 547.364 295.5C547.137 294.967 546.804 294.56 546.364 294.28C545.924 293.987 545.371 293.84 544.704 293.84C544.011 293.84 543.431 294 542.964 294.32C542.497 294.64 542.151 295.08 541.924 295.64C541.697 296.2 541.584 296.86 541.584 297.62C541.584 298.34 541.697 298.987 541.924 299.56C542.151 300.12 542.504 300.567 542.984 300.9C543.464 301.22 544.077 301.38 544.824 301.38C545.571 301.38 546.184 301.22 546.664 300.9C547.144 300.567 547.437 300.18 547.544 299.74H549.724C549.577 300.473 549.277 301.113 548.824 301.66C548.384 302.207 547.824 302.627 547.144 302.92C546.464 303.213 545.691 303.36 544.824 303.36ZM556.328 303.36C555.555 303.36 554.848 303.22 554.208 302.94C553.581 302.66 553.028 302.267 552.548 301.76C552.081 301.253 551.721 300.667 551.468 300C551.215 299.333 551.088 298.607 551.088 297.82V297.44C551.088 296.667 551.208 295.947 551.448 295.28C551.701 294.6 552.055 294.007 552.508 293.5C552.961 292.993 553.501 292.6 554.128 292.32C554.768 292.027 555.475 291.88 556.248 291.88C557.075 291.88 557.815 292.06 558.468 292.42C559.135 292.767 559.668 293.307 560.068 294.04C560.481 294.76 560.708 295.68 560.748 296.8L559.948 295.7V288.4H562.288V303H560.428V298.32H560.948C560.908 299.48 560.668 300.433 560.228 301.18C559.801 301.927 559.248 302.48 558.568 302.84C557.888 303.187 557.141 303.36 556.328 303.36ZM556.768 301.34C557.368 301.34 557.908 301.207 558.388 300.94C558.881 300.673 559.275 300.287 559.568 299.78C559.875 299.26 560.028 298.653 560.028 297.96V297.1C560.028 296.42 559.875 295.84 559.568 295.36C559.261 294.88 558.861 294.513 558.368 294.26C557.875 294.007 557.335 293.88 556.748 293.88C556.095 293.88 555.515 294.04 555.008 294.36C554.515 294.667 554.128 295.1 553.848 295.66C553.568 296.22 553.428 296.873 553.428 297.62C553.428 298.38 553.568 299.04 553.848 299.6C554.141 300.16 554.541 300.593 555.048 300.9C555.555 301.193 556.128 301.34 556.768 301.34ZM568.835 303.32C567.568 303.32 566.595 302.913 565.915 302.1C565.235 301.273 564.895 300.06 564.895 298.46V292.22H567.235V298.78C567.235 299.527 567.442 300.12 567.855 300.56C568.268 300.987 568.828 301.2 569.535 301.2C570.255 301.2 570.842 300.973 571.295 300.52C571.762 300.053 571.995 299.42 571.995 298.62V292.22H574.335V303H572.475V298.4H572.715C572.715 299.48 572.568 300.387 572.275 301.12C571.995 301.84 571.575 302.387 571.015 302.76C570.468 303.133 569.775 303.32 568.935 303.32H568.835ZM581.891 303.36C580.971 303.36 580.164 303.207 579.471 302.9C578.791 302.58 578.224 302.153 577.771 301.62C577.331 301.073 576.997 300.473 576.771 299.82C576.557 299.153 576.451 298.48 576.451 297.8V297.44C576.451 296.733 576.564 296.053 576.791 295.4C577.017 294.733 577.357 294.133 577.811 293.6C578.264 293.067 578.824 292.647 579.491 292.34C580.171 292.02 580.964 291.86 581.871 291.86C582.791 291.86 583.611 292.033 584.331 292.38C585.064 292.727 585.651 293.22 586.091 293.86C586.531 294.487 586.777 295.22 586.831 296.06H584.571C584.491 295.46 584.217 294.953 583.751 294.54C583.297 294.127 582.671 293.92 581.871 293.92C581.177 293.92 580.604 294.08 580.151 294.4C579.697 294.72 579.357 295.16 579.131 295.72C578.904 296.267 578.791 296.9 578.791 297.62C578.791 298.313 578.897 298.94 579.111 299.5C579.337 300.06 579.677 300.5 580.131 300.82C580.597 301.14 581.184 301.3 581.891 301.3C582.437 301.3 582.904 301.207 583.291 301.02C583.691 300.82 584.011 300.56 584.251 300.24C584.491 299.907 584.631 299.527 584.671 299.1H586.951C586.911 299.967 586.664 300.72 586.211 301.36C585.757 301.987 585.157 302.48 584.411 302.84C583.664 303.187 582.824 303.36 581.891 303.36ZM593.199 303.12C592.305 303.12 591.552 303 590.939 302.76C590.325 302.52 589.859 302.107 589.539 301.52C589.232 300.933 589.079 300.14 589.079 299.14V289.08H591.299V299.34C591.299 299.9 591.445 300.333 591.739 300.64C592.045 300.933 592.472 301.08 593.019 301.08H594.819V303.12H593.199ZM587.299 293.96V292.22H594.819V293.96H587.299ZM597.273 303V292.22H599.613V303H597.273ZM595.693 294.02V292.22H599.613V294.02H595.693ZM598.033 290.72C597.553 290.72 597.193 290.593 596.953 290.34C596.726 290.087 596.613 289.76 596.613 289.36C596.613 288.973 596.726 288.653 596.953 288.4C597.193 288.133 597.553 288 598.033 288C598.526 288 598.886 288.133 599.113 288.4C599.353 288.653 599.473 288.973 599.473 289.36C599.473 289.76 599.353 290.087 599.113 290.34C598.886 290.593 598.526 290.72 598.033 290.72ZM607.56 303.36C606.614 303.36 605.78 303.207 605.06 302.9C604.34 302.58 603.734 302.16 603.24 301.64C602.747 301.12 602.374 300.533 602.12 299.88C601.867 299.213 601.74 298.527 601.74 297.82V297.42C601.74 296.713 601.867 296.027 602.12 295.36C602.387 294.693 602.767 294.1 603.26 293.58C603.767 293.047 604.38 292.627 605.1 292.32C605.82 292.013 606.64 291.86 607.56 291.86C608.48 291.86 609.294 292.013 610 292.32C610.72 292.627 611.334 293.047 611.84 293.58C612.347 294.1 612.727 294.693 612.98 295.36C613.247 296.027 613.38 296.713 613.38 297.42V297.82C613.38 298.527 613.254 299.213 613 299.88C612.747 300.533 612.374 301.12 611.88 301.64C611.387 302.16 610.78 302.58 610.06 302.9C609.34 303.207 608.507 303.36 607.56 303.36ZM607.56 301.32C608.294 301.32 608.92 301.16 609.44 300.84C609.96 300.507 610.354 300.06 610.62 299.5C610.9 298.94 611.04 298.313 611.04 297.62C611.04 296.913 610.9 296.28 610.62 295.72C610.34 295.16 609.94 294.72 609.42 294.4C608.9 294.067 608.28 293.9 607.56 293.9C606.84 293.9 606.22 294.067 605.7 294.4C605.18 294.72 604.78 295.16 604.5 295.72C604.22 296.28 604.08 296.913 604.08 297.62C604.08 298.313 604.214 298.94 604.48 299.5C604.76 300.06 605.16 300.507 605.68 300.84C606.2 301.16 606.827 301.32 607.56 301.32ZM615.455 303V292.22H617.315V296.84H617.095C617.095 295.773 617.235 294.873 617.515 294.14C617.808 293.407 618.248 292.853 618.835 292.48C619.422 292.093 620.148 291.9 621.015 291.9H621.115C622.448 291.9 623.442 292.32 624.095 293.16C624.748 294 625.075 295.227 625.075 296.84V303H622.735V296.52C622.735 295.773 622.522 295.173 622.095 294.72C621.668 294.253 621.082 294.02 620.335 294.02C619.575 294.02 618.962 294.26 618.495 294.74C618.028 295.207 617.795 295.833 617.795 296.62V303H615.455ZM632.08 303V292.22H634.42V303H632.08ZM630.5 294.02V292.22H634.42V294.02H630.5ZM632.84 290.72C632.36 290.72 632 290.593 631.76 290.34C631.533 290.087 631.42 289.76 631.42 289.36C631.42 288.973 631.533 288.653 631.76 288.4C632 288.133 632.36 288 632.84 288C633.333 288 633.693 288.133 633.92 288.4C634.16 288.653 634.28 288.973 634.28 289.36C634.28 289.76 634.16 290.087 633.92 290.34C633.693 290.593 633.333 290.72 632.84 290.72ZM637.308 303V292.22H639.168V296.84H638.948C638.948 295.773 639.088 294.873 639.368 294.14C639.661 293.407 640.101 292.853 640.688 292.48C641.274 292.093 642.001 291.9 642.868 291.9H642.968C644.301 291.9 645.294 292.32 645.948 293.16C646.601 294 646.928 295.227 646.928 296.84V303H644.588V296.52C644.588 295.773 644.374 295.173 643.948 294.72C643.521 294.253 642.934 294.02 642.188 294.02C641.428 294.02 640.814 294.26 640.348 294.74C639.881 295.207 639.648 295.833 639.648 296.62V303H637.308ZM658.512 303.36C657.259 303.36 656.192 303.16 655.312 302.76C654.446 302.347 653.786 301.787 653.332 301.08C652.879 300.36 652.652 299.547 652.652 298.64H655.012C655.012 299.053 655.126 299.46 655.352 299.86C655.579 300.26 655.946 300.593 656.452 300.86C656.959 301.113 657.646 301.24 658.512 301.24C659.299 301.24 659.946 301.127 660.452 300.9C660.972 300.673 661.352 300.373 661.592 300C661.846 299.627 661.972 299.213 661.972 298.76C661.972 298.2 661.732 297.747 661.252 297.4C660.772 297.04 660.052 296.82 659.092 296.74L657.632 296.6C656.286 296.493 655.212 296.08 654.412 295.36C653.612 294.627 653.212 293.667 653.212 292.48C653.212 291.573 653.426 290.787 653.852 290.12C654.292 289.453 654.906 288.933 655.692 288.56C656.479 288.173 657.392 287.98 658.432 287.98C659.499 287.98 660.426 288.173 661.212 288.56C661.999 288.933 662.606 289.467 663.032 290.16C663.472 290.84 663.692 291.653 663.692 292.6H661.332C661.332 292.173 661.226 291.773 661.012 291.4C660.812 291.013 660.499 290.7 660.072 290.46C659.646 290.22 659.099 290.1 658.432 290.1C657.792 290.1 657.259 290.213 656.832 290.44C656.419 290.667 656.106 290.96 655.892 291.32C655.679 291.68 655.572 292.067 655.572 292.48C655.572 292.973 655.759 293.413 656.132 293.8C656.506 294.173 657.079 294.393 657.852 294.46L659.292 294.58C660.319 294.66 661.206 294.88 661.952 295.24C662.712 295.587 663.299 296.053 663.712 296.64C664.139 297.227 664.352 297.933 664.352 298.76C664.352 299.667 664.106 300.467 663.612 301.16C663.132 301.853 662.452 302.393 661.572 302.78C660.706 303.167 659.686 303.36 658.512 303.36ZM670.865 303.12C669.972 303.12 669.218 303 668.605 302.76C667.992 302.52 667.525 302.107 667.205 301.52C666.898 300.933 666.745 300.14 666.745 299.14V289.08H668.965V299.34C668.965 299.9 669.112 300.333 669.405 300.64C669.712 300.933 670.138 301.08 670.685 301.08H672.485V303.12H670.865ZM664.965 293.96V292.22H672.485V293.96H664.965ZM680.88 303V299.78H680.5V296.14C680.5 295.473 680.327 294.967 679.98 294.62C679.633 294.273 679.12 294.1 678.44 294.1C678.067 294.1 677.653 294.107 677.2 294.12C676.747 294.133 676.3 294.153 675.86 294.18C675.433 294.193 675.053 294.213 674.72 294.24V292.22C675.013 292.193 675.333 292.173 675.68 292.16C676.04 292.133 676.407 292.113 676.78 292.1C677.167 292.087 677.533 292.08 677.88 292.08C678.973 292.08 679.88 292.22 680.6 292.5C681.32 292.78 681.853 293.227 682.2 293.84C682.56 294.44 682.74 295.247 682.74 296.26V303H680.88ZM677.38 303.28C676.593 303.28 675.907 303.147 675.32 302.88C674.733 302.6 674.28 302.2 673.96 301.68C673.64 301.147 673.48 300.513 673.48 299.78C673.48 299.007 673.66 298.367 674.02 297.86C674.393 297.353 674.92 296.973 675.6 296.72C676.28 296.467 677.093 296.34 678.04 296.34H680.74V297.88H677.98C677.273 297.88 676.733 298.053 676.36 298.4C675.987 298.733 675.8 299.173 675.8 299.72C675.8 300.267 675.987 300.707 676.36 301.04C676.733 301.36 677.273 301.52 677.98 301.52C678.393 301.52 678.787 301.447 679.16 301.3C679.533 301.14 679.84 300.88 680.08 300.52C680.333 300.16 680.473 299.653 680.5 299L681.1 299.78C681.033 300.54 680.847 301.18 680.54 301.7C680.247 302.207 679.833 302.6 679.3 302.88C678.78 303.147 678.14 303.28 677.38 303.28ZM685.661 303V291.72C685.661 290.507 685.988 289.613 686.641 289.04C687.295 288.453 688.261 288.16 689.541 288.16H690.601V290.02H689.281C688.828 290.02 688.481 290.147 688.241 290.4C688.001 290.653 687.881 291 687.881 291.44V303H685.661ZM692.621 303V291.84C692.621 290.627 692.948 289.733 693.601 289.16C694.268 288.573 695.235 288.28 696.501 288.28H697.841V290.14H696.241C695.801 290.14 695.455 290.267 695.201 290.52C694.961 290.773 694.841 291.12 694.841 291.56V303H692.621ZM684.241 294.12V292.38H698.021V294.12H684.241ZM706.266 303V290.12H708.666V303H706.266ZM701.946 290.52V288.4H713.006V290.52H701.946ZM717.399 303.32C716.132 303.32 715.159 302.913 714.479 302.1C713.799 301.273 713.459 300.06 713.459 298.46V292.22H715.799V298.78C715.799 299.527 716.006 300.12 716.419 300.56C716.832 300.987 717.392 301.2 718.099 301.2C718.819 301.2 719.406 300.973 719.859 300.52C720.326 300.053 720.559 299.42 720.559 298.62V292.22H722.899V303H721.039V298.4H721.279C721.279 299.48 721.132 300.387 720.839 301.12C720.559 301.84 720.139 302.387 719.579 302.76C719.032 303.133 718.339 303.32 717.499 303.32H717.399ZM725.775 303V292.22H727.635V296.72H727.555C727.555 295.173 727.895 294.02 728.575 293.26C729.255 292.487 730.261 292.1 731.595 292.1H731.975V294.16H731.255C730.241 294.16 729.461 294.433 728.915 294.98C728.381 295.513 728.115 296.28 728.115 297.28V303H725.775ZM733.456 303V292.22H735.316V296.84H735.096C735.096 295.773 735.236 294.873 735.516 294.14C735.809 293.407 736.249 292.853 736.836 292.48C737.423 292.093 738.149 291.9 739.016 291.9H739.116C740.449 291.9 741.443 292.32 742.096 293.16C742.749 294 743.076 295.227 743.076 296.84V303H740.736V296.52C740.736 295.773 740.523 295.173 740.096 294.72C739.669 294.253 739.083 294.02 738.336 294.02C737.576 294.02 736.963 294.26 736.496 294.74C736.029 295.207 735.796 295.833 735.796 296.62V303H733.456ZM750.787 303.36C749.84 303.36 749.007 303.207 748.287 302.9C747.567 302.58 746.96 302.16 746.467 301.64C745.974 301.12 745.6 300.533 745.347 299.88C745.094 299.213 744.967 298.527 744.967 297.82V297.42C744.967 296.713 745.094 296.027 745.347 295.36C745.614 294.693 745.994 294.1 746.487 293.58C746.994 293.047 747.607 292.627 748.327 292.32C749.047 292.013 749.867 291.86 750.787 291.86C751.707 291.86 752.52 292.013 753.227 292.32C753.947 292.627 754.56 293.047 755.067 293.58C755.574 294.1 755.954 294.693 756.207 295.36C756.474 296.027 756.607 296.713 756.607 297.42V297.82C756.607 298.527 756.48 299.213 756.227 299.88C755.974 300.533 755.6 301.12 755.107 301.64C754.614 302.16 754.007 302.58 753.287 302.9C752.567 303.207 751.734 303.36 750.787 303.36ZM750.787 301.32C751.52 301.32 752.147 301.16 752.667 300.84C753.187 300.507 753.58 300.06 753.847 299.5C754.127 298.94 754.267 298.313 754.267 297.62C754.267 296.913 754.127 296.28 753.847 295.72C753.567 295.16 753.167 294.72 752.647 294.4C752.127 294.067 751.507 293.9 750.787 293.9C750.067 293.9 749.447 294.067 748.927 294.4C748.407 294.72 748.007 295.16 747.727 295.72C747.447 296.28 747.307 296.913 747.307 297.62C747.307 298.313 747.44 298.94 747.707 299.5C747.987 300.06 748.387 300.507 748.907 300.84C749.427 301.16 750.054 301.32 750.787 301.32ZM760.687 303L757.167 292.22H759.607L763.007 303H760.687ZM761.347 303V301.1H763.967V303H761.347ZM762.347 303L765.307 292.22H767.587L764.527 303H762.347ZM773.797 303.36C772.864 303.36 772.051 303.2 771.357 302.88C770.664 302.56 770.097 302.14 769.657 301.62C769.217 301.087 768.884 300.493 768.657 299.84C768.444 299.173 768.337 298.493 768.337 297.8V297.42C768.337 296.713 768.444 296.033 768.657 295.38C768.884 294.713 769.217 294.12 769.657 293.6C770.097 293.067 770.651 292.647 771.317 292.34C771.997 292.02 772.784 291.86 773.677 291.86C774.837 291.86 775.804 292.113 776.577 292.62C777.351 293.127 777.931 293.787 778.317 294.6C778.704 295.4 778.897 296.267 778.897 297.2V298.14H769.337V296.56H777.317L776.677 297.36C776.677 296.64 776.564 296.02 776.337 295.5C776.111 294.967 775.777 294.56 775.337 294.28C774.897 293.987 774.344 293.84 773.677 293.84C772.984 293.84 772.404 294 771.937 294.32C771.471 294.64 771.124 295.08 770.897 295.64C770.671 296.2 770.557 296.86 770.557 297.62C770.557 298.34 770.671 298.987 770.897 299.56C771.124 300.12 771.477 300.567 771.957 300.9C772.437 301.22 773.051 301.38 773.797 301.38C774.544 301.38 775.157 301.22 775.637 300.9C776.117 300.567 776.411 300.18 776.517 299.74H778.697C778.551 300.473 778.251 301.113 777.797 301.66C777.357 302.207 776.797 302.627 776.117 302.92C775.437 303.213 774.664 303.36 773.797 303.36ZM780.822 303V292.22H782.682V296.72H782.602C782.602 295.173 782.942 294.02 783.622 293.26C784.302 292.487 785.308 292.1 786.642 292.1H787.022V294.16H786.302C785.288 294.16 784.508 294.433 783.962 294.98C783.428 295.513 783.162 296.28 783.162 297.28V303H780.822Z" fill="black"/>
<path d="M529.242 372.252C528.467 372.252 527.805 372.107 527.254 371.818C526.703 371.519 526.283 371.123 525.994 370.628C525.714 370.124 525.574 369.573 525.574 368.976H527.184C527.184 369.545 527.366 369.998 527.73 370.334C528.103 370.67 528.607 370.838 529.242 370.838C529.662 370.838 530.021 370.763 530.32 370.614C530.628 370.455 530.866 370.236 531.034 369.956C531.202 369.667 531.286 369.331 531.286 368.948C531.286 368.379 531.104 367.917 530.74 367.562C530.376 367.198 529.877 367.016 529.242 367.016C528.962 367.016 528.715 367.053 528.5 367.128C528.295 367.203 528.113 367.296 527.954 367.408L527.156 366.022L530.796 363.446L530.656 363.194H525.98V361.78H532.434V363.726L529.088 366.05L528.052 365.98C528.22 365.924 528.402 365.877 528.598 365.84C528.803 365.803 529.032 365.784 529.284 365.784C530.049 365.784 530.698 365.924 531.23 366.204C531.771 366.475 532.187 366.843 532.476 367.31C532.765 367.777 532.91 368.299 532.91 368.878V369.06C532.91 369.629 532.765 370.157 532.476 370.642C532.187 371.127 531.771 371.519 531.23 371.818C530.689 372.107 530.026 372.252 529.242 372.252Z" fill="#6B6968"/>
<path d="M525.994 414V412.18C525.994 411.76 526.055 411.401 526.176 411.102C526.307 410.794 526.521 410.519 526.82 410.276C527.119 410.033 527.52 409.8 528.024 409.576L529.844 408.75C530.301 408.545 530.651 408.288 530.894 407.98C531.146 407.663 531.272 407.257 531.272 406.762C531.272 406.193 531.109 405.745 530.782 405.418C530.455 405.082 529.989 404.914 529.382 404.914C528.785 404.914 528.318 405.082 527.982 405.418C527.655 405.745 527.492 406.202 527.492 406.79H525.868C525.868 406.183 525.994 405.633 526.246 405.138C526.507 404.634 526.899 404.233 527.422 403.934C527.945 403.635 528.598 403.486 529.382 403.486C530.166 403.486 530.815 403.635 531.328 403.934C531.851 404.223 532.238 404.611 532.49 405.096C532.751 405.572 532.882 406.095 532.882 406.664V406.86C532.882 407.607 532.667 408.237 532.238 408.75C531.818 409.254 531.221 409.679 530.446 410.024L528.612 410.85C528.239 411.018 527.982 411.191 527.842 411.368C527.702 411.545 527.632 411.779 527.632 412.068V413.16L527.212 412.572H532.98V414H525.994Z" fill="#6B6968"/>
<path d="M527.73 461V451.732L528.346 452.208H525.546V450.78H529.382V461H527.73Z" fill="#6B6968"/>
<path d="M530.25 505.252C529.475 505.252 528.813 505.121 528.262 504.86C527.711 504.589 527.263 504.225 526.918 503.768C526.582 503.311 526.335 502.783 526.176 502.186C526.017 501.579 525.938 500.94 525.938 500.268V499.498C525.938 498.565 526.087 497.72 526.386 496.964C526.694 496.208 527.165 495.606 527.8 495.158C528.444 494.71 529.261 494.486 530.25 494.486C531.249 494.486 532.061 494.71 532.686 495.158C533.321 495.606 533.792 496.208 534.1 496.964C534.408 497.72 534.562 498.565 534.562 499.498V500.268C534.562 500.94 534.483 501.579 534.324 502.186C534.165 502.783 533.913 503.311 533.568 503.768C533.232 504.225 532.789 504.589 532.238 504.86C531.697 505.121 531.034 505.252 530.25 505.252ZM530.25 503.726C531.155 503.726 531.818 503.423 532.238 502.816C532.667 502.2 532.882 501.229 532.882 499.904C532.882 498.513 532.663 497.519 532.224 496.922C531.795 496.315 531.137 496.012 530.25 496.012C529.363 496.012 528.701 496.315 528.262 496.922C527.833 497.519 527.618 498.504 527.618 499.876C527.618 501.211 527.833 502.186 528.262 502.802C528.691 503.418 529.354 503.726 530.25 503.726Z" fill="#6B6968"/>
<rect x="91" y="445" width="332" height="1" fill="#D9D9D9"/>
<rect x="88" y="545" width="247" height="10" rx="5" fill="#F5F5F5"/>
<rect x="90" y="580" width="333" height="57" rx="5" fill="#4AFCBE"/>
<rect x="113" y="606" width="282" height="10" rx="5" fill="#222222"/>
<line x1="563.5" y1="349" x2="563.5" y2="520" stroke="#EEEEEE"/>
<line x1="743.5" y1="349" x2="743.5" y2="520" stroke="#EEEEEE"/>
<line x1="653.5" y1="349" x2="653.5" y2="520" stroke="#EEEEEE"/>
<line x1="833.5" y1="349" x2="833.5" y2="520" stroke="#EEEEEE"/>
<line x1="608.5" y1="349" x2="608.5" y2="520" stroke="#EEEEEE"/>
<line x1="788.5" y1="349" x2="788.5" y2="520" stroke="#EEEEEE"/>
<line x1="698.5" y1="349" x2="698.5" y2="520" stroke="#EEEEEE"/>
<line x1="543" y1="366.5" x2="847" y2="366.5" stroke="#DADAD9" stroke-dasharray="5 5"/>
<line x1="543" y1="456.5" x2="847" y2="456.5" stroke="#DADAD9" stroke-dasharray="5 5"/>
<line x1="543" y1="411.5" x2="847" y2="411.5" stroke="#DADAD9" stroke-dasharray="5 5"/>
<line x1="543" y1="501.5" x2="847" y2="501.5" stroke="#DADAD9" stroke-dasharray="5 5"/>
<path d="M557.372 540V529.78H559.64L562.44 536.234H562.678L565.45 529.78H567.746V540H566.08V531.278L566.248 531.306L563.42 537.9H561.572L558.716 531.306L558.912 531.278V540H557.372Z" fill="#6B6968"/>
<path d="M606.374 540V530.984H608.054V540H606.374ZM603.35 531.264V529.78H611.092V531.264H603.35Z" fill="#6B6968"/>
<path d="M648.052 540L645.378 529.78H647.114L649.368 538.894L648.766 538.558H650.292L649.634 538.894L651.44 530.186H652.924L650.782 540H648.052ZM654.184 540L651.832 530.186H653.386L655.444 538.894L654.8 538.558H656.326L655.696 538.894L657.698 529.78H659.35L656.942 540H654.184Z" fill="#6B6968"/>
<path d="M697.374 540V530.984H699.054V540H697.374ZM694.35 531.264V529.78H702.092V531.264H694.35Z" fill="#6B6968"/>
<path d="M741.372 540V529.78H743.052V540H741.372ZM742.772 535.59V534.134H747.014V535.59H742.772ZM742.772 531.236V529.78H747.224V531.236H742.772Z" fill="#6B6968"/>
<path d="M787.774 540.252C786.897 540.252 786.15 540.112 785.534 539.832C784.927 539.543 784.465 539.151 784.148 538.656C783.831 538.152 783.672 537.583 783.672 536.948H785.324C785.324 537.237 785.403 537.522 785.562 537.802C785.721 538.082 785.977 538.315 786.332 538.502C786.687 538.679 787.167 538.768 787.774 538.768C788.325 538.768 788.777 538.689 789.132 538.53C789.496 538.371 789.762 538.161 789.93 537.9C790.107 537.639 790.196 537.349 790.196 537.032C790.196 536.64 790.028 536.323 789.692 536.08C789.356 535.828 788.852 535.674 788.18 535.618L787.158 535.52C786.215 535.445 785.464 535.156 784.904 534.652C784.344 534.139 784.064 533.467 784.064 532.636C784.064 532.001 784.213 531.451 784.512 530.984C784.82 530.517 785.249 530.153 785.8 529.892C786.351 529.621 786.99 529.486 787.718 529.486C788.465 529.486 789.113 529.621 789.664 529.892C790.215 530.153 790.639 530.527 790.938 531.012C791.246 531.488 791.4 532.057 791.4 532.72H789.748C789.748 532.421 789.673 532.141 789.524 531.88C789.384 531.609 789.165 531.39 788.866 531.222C788.567 531.054 788.185 530.97 787.718 530.97C787.27 530.97 786.897 531.049 786.598 531.208C786.309 531.367 786.089 531.572 785.94 531.824C785.791 532.076 785.716 532.347 785.716 532.636C785.716 532.981 785.847 533.289 786.108 533.56C786.369 533.821 786.771 533.975 787.312 534.022L788.32 534.106C789.039 534.162 789.659 534.316 790.182 534.568C790.714 534.811 791.125 535.137 791.414 535.548C791.713 535.959 791.862 536.453 791.862 537.032C791.862 537.667 791.689 538.227 791.344 538.712C791.008 539.197 790.532 539.575 789.916 539.846C789.309 540.117 788.595 540.252 787.774 540.252Z" fill="#6B6968"/>
<path d="M832.774 540.252C831.897 540.252 831.15 540.112 830.534 539.832C829.927 539.543 829.465 539.151 829.148 538.656C828.831 538.152 828.672 537.583 828.672 536.948H830.324C830.324 537.237 830.403 537.522 830.562 537.802C830.721 538.082 830.977 538.315 831.332 538.502C831.687 538.679 832.167 538.768 832.774 538.768C833.325 538.768 833.777 538.689 834.132 538.53C834.496 538.371 834.762 538.161 834.93 537.9C835.107 537.639 835.196 537.349 835.196 537.032C835.196 536.64 835.028 536.323 834.692 536.08C834.356 535.828 833.852 535.674 833.18 535.618L832.158 535.52C831.215 535.445 830.464 535.156 829.904 534.652C829.344 534.139 829.064 533.467 829.064 532.636C829.064 532.001 829.213 531.451 829.512 530.984C829.82 530.517 830.249 530.153 830.8 529.892C831.351 529.621 831.99 529.486 832.718 529.486C833.465 529.486 834.113 529.621 834.664 529.892C835.215 530.153 835.639 530.527 835.938 531.012C836.246 531.488 836.4 532.057 836.4 532.72H834.748C834.748 532.421 834.673 532.141 834.524 531.88C834.384 531.609 834.165 531.39 833.866 531.222C833.567 531.054 833.185 530.97 832.718 530.97C832.27 530.97 831.897 531.049 831.598 531.208C831.309 531.367 831.089 531.572 830.94 531.824C830.791 532.076 830.716 532.347 830.716 532.636C830.716 532.981 830.847 533.289 831.108 533.56C831.369 533.821 831.771 533.975 832.312 534.022L833.32 534.106C834.039 534.162 834.659 534.316 835.182 534.568C835.714 534.811 836.125 535.137 836.414 535.548C836.713 535.959 836.862 536.453 836.862 537.032C836.862 537.667 836.689 538.227 836.344 538.712C836.008 539.197 835.532 539.575 834.916 539.846C834.309 540.117 833.595 540.252 832.774 540.252Z" fill="#6B6968"/>
<path d="M609.5 428.5L563.5 455.5V486.5H696.25H760.375H833.5V428.5C832.833 429.833 821.4 446.6 817 453C812.6 459.4 807.5 458.333 805.5 457C795.5 447.5 778.4 420.8 772 414C765.6 407.2 759.333 411.167 757 414C750 427 734.4 455.9 728 467.5C721.6 479.1 716 479 714 477.5C712 475.833 706 468.6 698 453C690 437.4 681 438.5 677.5 441C674 443 669.2 453.5 662 467.5C654.8 481.5 647.667 476.667 645 472.5C640.667 463.667 630.8 443.5 626 433.5C621.2 423.5 613 426 609.5 428.5Z" fill="url(#paint0_linear_1_167)"/>
<path d="M563.5 455.5L609.5 428.5C613 426 621.2 423.5 626 433.5C630.8 443.5 640.667 463.667 645 472.5C647.667 476.667 654.8 481.5 662 467.5C669.2 453.5 674 443 677.5 441C681 438.5 690 437.4 698 453C706 468.6 712 475.833 714 477.5C716 479 721.6 479.1 728 467.5C734.4 455.9 750 427 757 414C759.333 411.167 765.6 407.2 772 414C778.4 420.8 795.5 447.5 805.5 457C807.5 458.333 812.6 459.4 817 453C821.4 446.6 832.833 429.833 833.5 428.5" stroke="#222222" stroke-width="1.5"/>
<circle cx="683" cy="441" r="7" fill="white"/>
<circle r="3" transform="matrix(1 0 0 -1 683 441)" fill="#222222"/>
<rect x="637" y="380" width="92" height="39" fill="#4AFCBE"/>
<path d="M647.714 401.92V400.212H653.384V401.92H647.714ZM654.39 401.92V400.212H660.06V401.92H654.39ZM661.065 401.92V400.212H666.735V401.92H661.065ZM667.741 401.92V400.212H673.411V401.92H667.741ZM674.417 401.92V400.212H680.087V401.92H674.417ZM681.093 401.92V400.212H686.763V401.92H681.093ZM687.768 401.92V400.212H693.438V401.92H687.768ZM694.444 401.92V400.212H700.114V401.92H694.444ZM701.12 401.92V400.212H706.79V401.92H701.12ZM707.795 401.92V400.212H713.465V401.92H707.795ZM714.471 401.92V400.212H720.141V401.92H714.471Z" fill="#222222"/>
<path d="M681.634 423.5C682.019 424.167 682.981 424.167 683.366 423.5L686.397 418.25C686.782 417.583 686.301 416.75 685.531 416.75H679.469C678.699 416.75 678.218 417.583 678.603 418.25L681.634 423.5Z" fill="#4AFCBE"/>
<path d="M839.5 303L847 295H832L839.5 303Z" fill="#222222"/>
<defs>
<filter id="filter0_f_1_167" x="0" y="46" width="509" height="320" filterUnits="userSpaceOnUse" color-interpolation-filters="sRGB">
<feFlood flood-opacity="0" result="BackgroundImageFix"/>
<feBlend mode="normal" in="SourceGraphic" in2="BackgroundImageFix" result="shape"/>
<feGaussianBlur stdDeviation="25" result="effect1_foregroundBlur_1_167"/>
</filter>
<filter id="filter1_f_1_167" x="1" y="309" width="509" height="414" filterUnits="userSpaceOnUse" color-interpolation-filters="sRGB">
<feFlood flood-opacity="0" result="BackgroundImageFix"/>
<feBlend mode="normal" in="SourceGraphic" in2="BackgroundImageFix" result="shape"/>
<feGaussianBlur stdDeviation="25" result="effect1_foregroundBlur_1_167"/>
</filter>
<filter id="filter2_f_1_167" x="426" y="202" width="509" height="414" filterUnits="userSpaceOnUse" color-interpolation-filters="sRGB">
<feFlood flood-opacity="0" result="BackgroundImageFix"/>
<feBlend mode="normal" in="SourceGraphic" in2="BackgroundImageFix" result="shape"/>
<feGaussianBlur stdDeviation="25" result="effect1_foregroundBlur_1_167"/>
</filter>
<linearGradient id="paint0_linear_1_167" x1="696" y1="429" x2="696.25" y2="486.5" gradientUnits="userSpaceOnUse">
<stop stop-color="#F1EFEF"/>
<stop offset="1" stop-color="#F5F5F5" stop-opacity="0.04"/>
</linearGradient>
<clipPath id="clip0_1_167">
<rect width="956" height="650" fill="white" transform="translate(67)"/>
</clipPath>
</defs>
</svg>
